<mxfile host="app.diagrams.net" modified="2023-09-20T20:04:45.960Z" agent="Mozilla/5.0 (Macintosh; Intel Mac OS X 10_15_7) AppleWebKit/537.36 (KHTML, like Gecko) Chrome/115.0.0.0 Safari/537.36" etag="2GTYUs_0HK7Uv025QYoY" version="21.5.2" type="device">
  <diagram name="Page-1" id="Hbwt1RqX-_SCLpMenBvQ">
    <mxGraphModel dx="1861" dy="2100" grid="0" gridSize="10" guides="1" tooltips="1" connect="1" arrows="1" fold="1" page="0" pageScale="1" pageWidth="850" pageHeight="1100" math="1" shadow="0">
      <root>
        <mxCell id="0" />
        <mxCell id="1" parent="0" />
        <mxCell id="RwjSKkJ2c-AfhbRD7why-275" style="edgeStyle=orthogonalEdgeStyle;rounded=0;orthogonalLoop=1;jettySize=auto;html=1;entryX=0.5;entryY=0;entryDx=0;entryDy=0;strokeWidth=3;" edge="1" parent="1" target="RwjSKkJ2c-AfhbRD7why-260">
          <mxGeometry relative="1" as="geometry">
            <mxPoint x="3520" y="-942" as="sourcePoint" />
          </mxGeometry>
        </mxCell>
        <mxCell id="RwjSKkJ2c-AfhbRD7why-280" value="" style="rounded=0;whiteSpace=wrap;html=1;strokeColor=none;" vertex="1" parent="1">
          <mxGeometry x="3502" y="-922" width="36" height="31" as="geometry" />
        </mxCell>
        <mxCell id="RwjSKkJ2c-AfhbRD7why-1" value="$$1$$" style="rounded=0;whiteSpace=wrap;html=1;fontSize=18;" vertex="1" parent="1">
          <mxGeometry x="180" y="180" width="64" height="64" as="geometry" />
        </mxCell>
        <mxCell id="RwjSKkJ2c-AfhbRD7why-2" value="$$2$$" style="rounded=0;whiteSpace=wrap;html=1;fontSize=18;" vertex="1" parent="1">
          <mxGeometry x="244" y="180" width="64" height="64" as="geometry" />
        </mxCell>
        <mxCell id="RwjSKkJ2c-AfhbRD7why-9" style="rounded=0;orthogonalLoop=1;jettySize=auto;html=1;exitX=0.5;exitY=1;exitDx=0;exitDy=0;entryX=0.5;entryY=0;entryDx=0;entryDy=0;strokeWidth=2;strokeColor=#4D4D4D;endArrow=block;endFill=1;" edge="1" parent="1" source="RwjSKkJ2c-AfhbRD7why-3" target="RwjSKkJ2c-AfhbRD7why-8">
          <mxGeometry relative="1" as="geometry" />
        </mxCell>
        <mxCell id="RwjSKkJ2c-AfhbRD7why-3" value="$$3$$" style="rounded=0;whiteSpace=wrap;html=1;fontSize=18;" vertex="1" parent="1">
          <mxGeometry x="308" y="180" width="64" height="64" as="geometry" />
        </mxCell>
        <mxCell id="RwjSKkJ2c-AfhbRD7why-4" value="$$4$$" style="rounded=0;whiteSpace=wrap;html=1;fontSize=18;" vertex="1" parent="1">
          <mxGeometry x="372" y="180" width="64" height="64" as="geometry" />
        </mxCell>
        <mxCell id="RwjSKkJ2c-AfhbRD7why-5" value="$$5$$" style="rounded=0;whiteSpace=wrap;html=1;fontSize=18;" vertex="1" parent="1">
          <mxGeometry x="436" y="180" width="64" height="64" as="geometry" />
        </mxCell>
        <mxCell id="RwjSKkJ2c-AfhbRD7why-6" value="$$n=5$$" style="text;html=1;strokeColor=none;fillColor=none;align=center;verticalAlign=middle;whiteSpace=wrap;rounded=0;fontSize=14;" vertex="1" parent="1">
          <mxGeometry x="438" y="147" width="60" height="30" as="geometry" />
        </mxCell>
        <mxCell id="RwjSKkJ2c-AfhbRD7why-7" value="$$s=3$$" style="text;html=1;strokeColor=none;fillColor=none;align=center;verticalAlign=middle;whiteSpace=wrap;rounded=0;fontSize=14;" vertex="1" parent="1">
          <mxGeometry x="310" y="147" width="60" height="30" as="geometry" />
        </mxCell>
        <mxCell id="RwjSKkJ2c-AfhbRD7why-8" value="$$(2,2, 3)$$" style="rounded=1;whiteSpace=wrap;html=1;fillColor=#dae8fc;strokeColor=#6c8ebf;fontSize=16;strokeWidth=2;" vertex="1" parent="1">
          <mxGeometry x="246" y="318" width="60" height="60" as="geometry" />
        </mxCell>
        <mxCell id="RwjSKkJ2c-AfhbRD7why-10" value="$$(4, 3, 4)$$" style="rounded=1;whiteSpace=wrap;html=1;fillColor=#dae8fc;strokeColor=#6c8ebf;fontSize=16;strokeWidth=2;" vertex="1" parent="1">
          <mxGeometry x="374" y="318" width="60" height="60" as="geometry" />
        </mxCell>
        <mxCell id="RwjSKkJ2c-AfhbRD7why-12" style="rounded=0;orthogonalLoop=1;jettySize=auto;html=1;exitX=0.5;exitY=1;exitDx=0;exitDy=0;entryX=0.5;entryY=0;entryDx=0;entryDy=0;strokeWidth=2;strokeColor=#4D4D4D;endArrow=block;endFill=1;" edge="1" parent="1" source="RwjSKkJ2c-AfhbRD7why-3" target="RwjSKkJ2c-AfhbRD7why-10">
          <mxGeometry relative="1" as="geometry">
            <mxPoint x="350" y="254" as="sourcePoint" />
            <mxPoint x="286" y="328" as="targetPoint" />
          </mxGeometry>
        </mxCell>
        <mxCell id="RwjSKkJ2c-AfhbRD7why-13" value="Toy problem in which&amp;nbsp; &amp;nbsp; &amp;nbsp; &amp;nbsp; &amp;nbsp; &amp;nbsp; &amp;nbsp;:" style="text;html=1;strokeColor=none;fillColor=none;align=center;verticalAlign=middle;whiteSpace=wrap;rounded=0;fontSize=15;" vertex="1" parent="1">
          <mxGeometry x="239.5" y="102" width="201" height="30" as="geometry" />
        </mxCell>
        <mxCell id="RwjSKkJ2c-AfhbRD7why-14" value="$$n=5$$" style="text;html=1;strokeColor=none;fillColor=none;align=center;verticalAlign=middle;whiteSpace=wrap;rounded=0;fontSize=15;" vertex="1" parent="1">
          <mxGeometry x="377.5" y="102" width="60" height="30" as="geometry" />
        </mxCell>
        <mxCell id="RwjSKkJ2c-AfhbRD7why-17" value="$$(1,1, 3)$$" style="rounded=1;whiteSpace=wrap;html=1;fillColor=#dae8fc;strokeColor=#6c8ebf;fontSize=16;strokeWidth=2;" vertex="1" parent="1">
          <mxGeometry x="113" y="455" width="60" height="60" as="geometry" />
        </mxCell>
        <mxCell id="RwjSKkJ2c-AfhbRD7why-18" value="$$(4,2, 4)$$" style="rounded=1;whiteSpace=wrap;html=1;fillColor=#dae8fc;strokeColor=#6c8ebf;fontSize=16;strokeWidth=2;" vertex="1" parent="1">
          <mxGeometry x="246" y="455" width="60" height="60" as="geometry" />
        </mxCell>
        <mxCell id="RwjSKkJ2c-AfhbRD7why-19" style="rounded=0;orthogonalLoop=1;jettySize=auto;html=1;exitX=0.5;exitY=1;exitDx=0;exitDy=0;entryX=0.5;entryY=0;entryDx=0;entryDy=0;strokeWidth=2;strokeColor=#4D4D4D;endArrow=block;endFill=1;" edge="1" parent="1" source="RwjSKkJ2c-AfhbRD7why-8" target="RwjSKkJ2c-AfhbRD7why-17">
          <mxGeometry relative="1" as="geometry">
            <mxPoint x="350" y="254" as="sourcePoint" />
            <mxPoint x="286" y="328" as="targetPoint" />
          </mxGeometry>
        </mxCell>
        <mxCell id="RwjSKkJ2c-AfhbRD7why-21" style="rounded=0;orthogonalLoop=1;jettySize=auto;html=1;exitX=0.5;exitY=1;exitDx=0;exitDy=0;entryX=0.5;entryY=0;entryDx=0;entryDy=0;strokeWidth=2;strokeColor=#4D4D4D;endArrow=block;endFill=1;" edge="1" parent="1" source="RwjSKkJ2c-AfhbRD7why-8" target="RwjSKkJ2c-AfhbRD7why-18">
          <mxGeometry relative="1" as="geometry">
            <mxPoint x="286" y="388" as="sourcePoint" />
            <mxPoint x="153" y="465" as="targetPoint" />
          </mxGeometry>
        </mxCell>
        <mxCell id="RwjSKkJ2c-AfhbRD7why-22" value="$$-1$$" style="ellipse;whiteSpace=wrap;html=1;aspect=fixed;fillColor=#f8cecc;strokeColor=#b85450;fontStyle=1;fontSize=14;" vertex="1" parent="1">
          <mxGeometry x="270" y="402" width="30" height="30" as="geometry" />
        </mxCell>
        <mxCell id="RwjSKkJ2c-AfhbRD7why-24" value="$$(i, j)$$" style="rounded=1;whiteSpace=wrap;html=1;fillColor=#dae8fc;strokeColor=#6c8ebf;fontSize=16;strokeWidth=2;" vertex="1" parent="1">
          <mxGeometry x="-15.5" y="318" width="60" height="60" as="geometry" />
        </mxCell>
        <mxCell id="RwjSKkJ2c-AfhbRD7why-25" value="Each node denotes (i, j)" style="text;html=1;strokeColor=none;fillColor=none;align=center;verticalAlign=middle;whiteSpace=wrap;rounded=0;fontSize=16;" vertex="1" parent="1">
          <mxGeometry x="-31" y="276" width="91" height="30" as="geometry" />
        </mxCell>
        <mxCell id="RwjSKkJ2c-AfhbRD7why-26" value="Assumptions" style="text;html=1;strokeColor=none;fillColor=none;align=center;verticalAlign=middle;whiteSpace=wrap;rounded=0;fontStyle=1;fontSize=15;" vertex="1" parent="1">
          <mxGeometry x="-72.5" y="140" width="87" height="22" as="geometry" />
        </mxCell>
        <mxCell id="RwjSKkJ2c-AfhbRD7why-27" value="$$c_i$$" style="text;html=1;strokeColor=none;fillColor=none;align=center;verticalAlign=middle;whiteSpace=wrap;rounded=0;fontSize=14;" vertex="1" parent="1">
          <mxGeometry x="-83" y="170" width="26" height="22" as="geometry" />
        </mxCell>
        <mxCell id="RwjSKkJ2c-AfhbRD7why-29" value="is independent of actions" style="text;html=1;strokeColor=none;fillColor=none;align=left;verticalAlign=middle;whiteSpace=wrap;rounded=0;fontSize=14;" vertex="1" parent="1">
          <mxGeometry x="-57" y="170" width="167" height="22" as="geometry" />
        </mxCell>
        <mxCell id="RwjSKkJ2c-AfhbRD7why-31" value="$$t_{ij}$$" style="text;html=1;strokeColor=none;fillColor=none;align=center;verticalAlign=middle;whiteSpace=wrap;rounded=0;fontSize=14;" vertex="1" parent="1">
          <mxGeometry x="-83" y="197" width="26" height="22" as="geometry" />
        </mxCell>
        <mxCell id="RwjSKkJ2c-AfhbRD7why-32" value="is some constant for all i and j" style="text;html=1;strokeColor=none;fillColor=none;align=left;verticalAlign=middle;whiteSpace=wrap;rounded=0;fontSize=14;" vertex="1" parent="1">
          <mxGeometry x="-57" y="197" width="188" height="22" as="geometry" />
        </mxCell>
        <mxCell id="RwjSKkJ2c-AfhbRD7why-33" value="$$(4,1, 4)$$" style="rounded=1;whiteSpace=wrap;html=1;fillColor=#dae8fc;strokeColor=#6c8ebf;fontSize=16;strokeWidth=2;" vertex="1" parent="1">
          <mxGeometry x="4" y="583" width="60" height="60" as="geometry" />
        </mxCell>
        <mxCell id="RwjSKkJ2c-AfhbRD7why-34" style="rounded=0;orthogonalLoop=1;jettySize=auto;html=1;exitX=0.5;exitY=1;exitDx=0;exitDy=0;entryX=0.5;entryY=0;entryDx=0;entryDy=0;strokeWidth=2;strokeColor=#4D4D4D;endArrow=block;endFill=1;" edge="1" parent="1" source="RwjSKkJ2c-AfhbRD7why-17" target="RwjSKkJ2c-AfhbRD7why-33">
          <mxGeometry relative="1" as="geometry">
            <mxPoint x="286" y="388" as="sourcePoint" />
            <mxPoint x="153" y="465" as="targetPoint" />
          </mxGeometry>
        </mxCell>
        <mxCell id="RwjSKkJ2c-AfhbRD7why-35" value="$$(5,1, 5)$$" style="rounded=1;whiteSpace=wrap;html=1;fillColor=#dae8fc;strokeColor=#6c8ebf;fontSize=16;strokeWidth=2;" vertex="1" parent="1">
          <mxGeometry x="4" y="709" width="60" height="60" as="geometry" />
        </mxCell>
        <mxCell id="RwjSKkJ2c-AfhbRD7why-36" style="rounded=0;orthogonalLoop=1;jettySize=auto;html=1;exitX=0.5;exitY=1;exitDx=0;exitDy=0;entryX=0.5;entryY=0;entryDx=0;entryDy=0;strokeWidth=2;strokeColor=#4D4D4D;endArrow=block;endFill=1;" edge="1" parent="1" source="RwjSKkJ2c-AfhbRD7why-33" target="RwjSKkJ2c-AfhbRD7why-35">
          <mxGeometry relative="1" as="geometry">
            <mxPoint x="44" y="527" as="sourcePoint" />
            <mxPoint x="44" y="593" as="targetPoint" />
          </mxGeometry>
        </mxCell>
        <mxCell id="RwjSKkJ2c-AfhbRD7why-37" value="$$-1$$" style="ellipse;whiteSpace=wrap;html=1;aspect=fixed;fillColor=#f8cecc;strokeColor=#b85450;fontStyle=1;fontSize=14;" vertex="1" parent="1">
          <mxGeometry x="69" y="524" width="30" height="30" as="geometry" />
        </mxCell>
        <mxCell id="RwjSKkJ2c-AfhbRD7why-38" value="$$\sum t_{ij} = -1$$" style="text;html=1;strokeColor=none;fillColor=none;align=center;verticalAlign=middle;whiteSpace=wrap;rounded=0;fontSize=17;" vertex="1" parent="1">
          <mxGeometry x="4" y="792" width="60" height="30" as="geometry" />
        </mxCell>
        <mxCell id="RwjSKkJ2c-AfhbRD7why-40" value="$$(1,1, 4)$$" style="rounded=1;whiteSpace=wrap;html=1;fillColor=#dae8fc;strokeColor=#6c8ebf;fontSize=16;strokeWidth=2;" vertex="1" parent="1">
          <mxGeometry x="131" y="583" width="60" height="60" as="geometry" />
        </mxCell>
        <mxCell id="RwjSKkJ2c-AfhbRD7why-41" value="$$(5,2, 5)$$" style="rounded=1;whiteSpace=wrap;html=1;fillColor=#dae8fc;strokeColor=#6c8ebf;fontSize=16;strokeWidth=2;" vertex="1" parent="1">
          <mxGeometry x="246" y="583" width="60" height="60" as="geometry" />
        </mxCell>
        <mxCell id="RwjSKkJ2c-AfhbRD7why-42" value="$$(5,1, 5)$$" style="rounded=1;whiteSpace=wrap;html=1;fillColor=#dae8fc;strokeColor=#6c8ebf;fontSize=16;strokeWidth=2;" vertex="1" parent="1">
          <mxGeometry x="131" y="709" width="60" height="60" as="geometry" />
        </mxCell>
        <mxCell id="RwjSKkJ2c-AfhbRD7why-43" value="$$(1,1, 5)$$" style="rounded=1;whiteSpace=wrap;html=1;fillColor=#dae8fc;strokeColor=#6c8ebf;fontSize=16;strokeWidth=2;" vertex="1" parent="1">
          <mxGeometry x="246" y="709" width="60" height="60" as="geometry" />
        </mxCell>
        <mxCell id="RwjSKkJ2c-AfhbRD7why-44" style="rounded=0;orthogonalLoop=1;jettySize=auto;html=1;exitX=0.5;exitY=1;exitDx=0;exitDy=0;entryX=0.5;entryY=0;entryDx=0;entryDy=0;strokeWidth=2;strokeColor=#4D4D4D;endArrow=block;endFill=1;" edge="1" parent="1" source="RwjSKkJ2c-AfhbRD7why-18" target="RwjSKkJ2c-AfhbRD7why-40">
          <mxGeometry relative="1" as="geometry">
            <mxPoint x="286" y="388" as="sourcePoint" />
            <mxPoint x="153" y="465" as="targetPoint" />
          </mxGeometry>
        </mxCell>
        <mxCell id="RwjSKkJ2c-AfhbRD7why-45" style="rounded=0;orthogonalLoop=1;jettySize=auto;html=1;exitX=0.5;exitY=1;exitDx=0;exitDy=0;entryX=0.5;entryY=0;entryDx=0;entryDy=0;strokeWidth=2;strokeColor=#4D4D4D;endArrow=block;endFill=1;" edge="1" parent="1" source="RwjSKkJ2c-AfhbRD7why-18" target="RwjSKkJ2c-AfhbRD7why-41">
          <mxGeometry relative="1" as="geometry">
            <mxPoint x="296" y="398" as="sourcePoint" />
            <mxPoint x="163" y="475" as="targetPoint" />
          </mxGeometry>
        </mxCell>
        <mxCell id="RwjSKkJ2c-AfhbRD7why-46" style="rounded=0;orthogonalLoop=1;jettySize=auto;html=1;exitX=0.5;exitY=1;exitDx=0;exitDy=0;entryX=0.5;entryY=0;entryDx=0;entryDy=0;strokeWidth=2;strokeColor=#4D4D4D;endArrow=block;endFill=1;" edge="1" parent="1" source="RwjSKkJ2c-AfhbRD7why-40" target="RwjSKkJ2c-AfhbRD7why-42">
          <mxGeometry relative="1" as="geometry">
            <mxPoint x="306" y="408" as="sourcePoint" />
            <mxPoint x="173" y="485" as="targetPoint" />
          </mxGeometry>
        </mxCell>
        <mxCell id="RwjSKkJ2c-AfhbRD7why-47" style="rounded=0;orthogonalLoop=1;jettySize=auto;html=1;exitX=0.5;exitY=1;exitDx=0;exitDy=0;entryX=0.5;entryY=0;entryDx=0;entryDy=0;strokeWidth=2;strokeColor=#4D4D4D;endArrow=block;endFill=1;" edge="1" parent="1" source="RwjSKkJ2c-AfhbRD7why-41" target="RwjSKkJ2c-AfhbRD7why-43">
          <mxGeometry relative="1" as="geometry">
            <mxPoint x="316" y="418" as="sourcePoint" />
            <mxPoint x="183" y="495" as="targetPoint" />
          </mxGeometry>
        </mxCell>
        <mxCell id="RwjSKkJ2c-AfhbRD7why-48" value="$$-1$$" style="ellipse;whiteSpace=wrap;html=1;aspect=fixed;fillColor=#f8cecc;strokeColor=#b85450;fontStyle=1;fontSize=14;" vertex="1" parent="1">
          <mxGeometry x="207" y="541" width="30" height="30" as="geometry" />
        </mxCell>
        <mxCell id="RwjSKkJ2c-AfhbRD7why-49" value="$$-1$$" style="ellipse;whiteSpace=wrap;html=1;aspect=fixed;fillColor=#f8cecc;strokeColor=#b85450;fontStyle=1;fontSize=14;" vertex="1" parent="1">
          <mxGeometry x="155" y="657" width="30" height="30" as="geometry" />
        </mxCell>
        <mxCell id="RwjSKkJ2c-AfhbRD7why-50" value="$$-1$$" style="ellipse;whiteSpace=wrap;html=1;aspect=fixed;fillColor=#f8cecc;strokeColor=#b85450;fontStyle=1;fontSize=14;" vertex="1" parent="1">
          <mxGeometry x="270" y="657" width="30" height="30" as="geometry" />
        </mxCell>
        <mxCell id="RwjSKkJ2c-AfhbRD7why-51" value="$$\sum t_{ij} = -3$$" style="text;html=1;strokeColor=none;fillColor=none;align=center;verticalAlign=middle;whiteSpace=wrap;rounded=0;fontSize=17;" vertex="1" parent="1">
          <mxGeometry x="131" y="792" width="60" height="30" as="geometry" />
        </mxCell>
        <mxCell id="RwjSKkJ2c-AfhbRD7why-52" value="$$\sum t_{ij} = -2$$" style="text;html=1;strokeColor=none;fillColor=none;align=center;verticalAlign=middle;whiteSpace=wrap;rounded=0;fontSize=17;" vertex="1" parent="1">
          <mxGeometry x="246" y="792" width="60" height="30" as="geometry" />
        </mxCell>
        <mxCell id="RwjSKkJ2c-AfhbRD7why-53" value="$$(s, i, j)$$" style="rounded=1;whiteSpace=wrap;html=1;fillColor=#dae8fc;strokeColor=#6c8ebf;fontSize=16;strokeWidth=2;" vertex="1" parent="1">
          <mxGeometry x="606.5" y="318" width="60" height="60" as="geometry" />
        </mxCell>
        <mxCell id="RwjSKkJ2c-AfhbRD7why-54" value="Each node denotes (s, i, j)" style="text;html=1;strokeColor=none;fillColor=none;align=center;verticalAlign=middle;whiteSpace=wrap;rounded=0;fontSize=16;" vertex="1" parent="1">
          <mxGeometry x="577" y="276" width="119" height="30" as="geometry" />
        </mxCell>
        <mxCell id="RwjSKkJ2c-AfhbRD7why-55" value="$$(2,2,4)$$" style="rounded=1;whiteSpace=wrap;html=1;fillColor=#dae8fc;strokeColor=#6c8ebf;fontSize=16;strokeWidth=2;" vertex="1" parent="1">
          <mxGeometry x="374" y="455" width="60" height="60" as="geometry" />
        </mxCell>
        <mxCell id="RwjSKkJ2c-AfhbRD7why-56" value="$$(5,3,5)$$" style="rounded=1;whiteSpace=wrap;html=1;fillColor=#dae8fc;strokeColor=#6c8ebf;fontSize=16;strokeWidth=2;" vertex="1" parent="1">
          <mxGeometry x="507" y="455" width="60" height="60" as="geometry" />
        </mxCell>
        <mxCell id="RwjSKkJ2c-AfhbRD7why-57" style="rounded=0;orthogonalLoop=1;jettySize=auto;html=1;exitX=0.5;exitY=1;exitDx=0;exitDy=0;entryX=0.5;entryY=0;entryDx=0;entryDy=0;strokeWidth=2;strokeColor=#4D4D4D;endArrow=block;endFill=1;" edge="1" parent="1" source="RwjSKkJ2c-AfhbRD7why-10" target="RwjSKkJ2c-AfhbRD7why-55">
          <mxGeometry relative="1" as="geometry">
            <mxPoint x="286" y="388" as="sourcePoint" />
            <mxPoint x="153" y="465" as="targetPoint" />
          </mxGeometry>
        </mxCell>
        <mxCell id="RwjSKkJ2c-AfhbRD7why-58" style="rounded=0;orthogonalLoop=1;jettySize=auto;html=1;exitX=0.5;exitY=1;exitDx=0;exitDy=0;entryX=0.5;entryY=0;entryDx=0;entryDy=0;strokeWidth=2;strokeColor=#4D4D4D;endArrow=block;endFill=1;" edge="1" parent="1" source="RwjSKkJ2c-AfhbRD7why-10" target="RwjSKkJ2c-AfhbRD7why-56">
          <mxGeometry relative="1" as="geometry">
            <mxPoint x="296" y="398" as="sourcePoint" />
            <mxPoint x="163" y="475" as="targetPoint" />
          </mxGeometry>
        </mxCell>
        <mxCell id="RwjSKkJ2c-AfhbRD7why-59" value="$$(2,2,5)$$" style="rounded=1;whiteSpace=wrap;html=1;fillColor=#dae8fc;strokeColor=#6c8ebf;fontSize=16;strokeWidth=2;" vertex="1" parent="1">
          <mxGeometry x="632" y="583" width="60" height="60" as="geometry" />
        </mxCell>
        <mxCell id="RwjSKkJ2c-AfhbRD7why-60" value="$$(1,1,5)$$" style="rounded=1;whiteSpace=wrap;html=1;fillColor=#dae8fc;strokeColor=#6c8ebf;fontSize=16;strokeWidth=2;" vertex="1" parent="1">
          <mxGeometry x="632" y="709" width="60" height="60" as="geometry" />
        </mxCell>
        <mxCell id="RwjSKkJ2c-AfhbRD7why-61" style="rounded=0;orthogonalLoop=1;jettySize=auto;html=1;exitX=0.5;exitY=1;exitDx=0;exitDy=0;entryX=0.5;entryY=0;entryDx=0;entryDy=0;strokeWidth=2;strokeColor=#4D4D4D;endArrow=block;endFill=1;" edge="1" parent="1" source="RwjSKkJ2c-AfhbRD7why-56" target="RwjSKkJ2c-AfhbRD7why-59">
          <mxGeometry relative="1" as="geometry">
            <mxPoint x="414" y="388" as="sourcePoint" />
            <mxPoint x="547" y="465" as="targetPoint" />
          </mxGeometry>
        </mxCell>
        <mxCell id="RwjSKkJ2c-AfhbRD7why-62" style="rounded=0;orthogonalLoop=1;jettySize=auto;html=1;exitX=0.5;exitY=1;exitDx=0;exitDy=0;entryX=0.5;entryY=0;entryDx=0;entryDy=0;strokeWidth=2;strokeColor=#4D4D4D;endArrow=block;endFill=1;" edge="1" parent="1" source="RwjSKkJ2c-AfhbRD7why-59" target="RwjSKkJ2c-AfhbRD7why-60">
          <mxGeometry relative="1" as="geometry">
            <mxPoint x="424" y="398" as="sourcePoint" />
            <mxPoint x="557" y="475" as="targetPoint" />
          </mxGeometry>
        </mxCell>
        <mxCell id="RwjSKkJ2c-AfhbRD7why-63" value="$$(1,1,4)$$" style="rounded=1;whiteSpace=wrap;html=1;fillColor=#d5e8d4;strokeColor=#82b366;fontSize=16;strokeWidth=2;" vertex="1" parent="1">
          <mxGeometry x="374" y="583" width="60" height="60" as="geometry" />
        </mxCell>
        <mxCell id="RwjSKkJ2c-AfhbRD7why-64" value="$$(5,2,5)$$" style="rounded=1;whiteSpace=wrap;html=1;fillColor=#d5e8d4;strokeColor=#82b366;fontSize=16;strokeWidth=2;" vertex="1" parent="1">
          <mxGeometry x="496" y="583" width="60" height="60" as="geometry" />
        </mxCell>
        <mxCell id="RwjSKkJ2c-AfhbRD7why-65" style="rounded=0;orthogonalLoop=1;jettySize=auto;html=1;exitX=0.5;exitY=1;exitDx=0;exitDy=0;entryX=0.5;entryY=0;entryDx=0;entryDy=0;strokeWidth=2;strokeColor=#4D4D4D;endArrow=block;endFill=1;" edge="1" parent="1" source="RwjSKkJ2c-AfhbRD7why-55" target="RwjSKkJ2c-AfhbRD7why-63">
          <mxGeometry relative="1" as="geometry">
            <mxPoint x="414" y="388" as="sourcePoint" />
            <mxPoint x="414" y="465" as="targetPoint" />
          </mxGeometry>
        </mxCell>
        <mxCell id="RwjSKkJ2c-AfhbRD7why-66" style="rounded=0;orthogonalLoop=1;jettySize=auto;html=1;exitX=0.5;exitY=1;exitDx=0;exitDy=0;entryX=0.5;entryY=0;entryDx=0;entryDy=0;strokeWidth=2;strokeColor=#4D4D4D;endArrow=block;endFill=1;" edge="1" parent="1" source="RwjSKkJ2c-AfhbRD7why-55" target="RwjSKkJ2c-AfhbRD7why-64">
          <mxGeometry relative="1" as="geometry">
            <mxPoint x="424" y="398" as="sourcePoint" />
            <mxPoint x="424" y="475" as="targetPoint" />
          </mxGeometry>
        </mxCell>
        <mxCell id="RwjSKkJ2c-AfhbRD7why-67" value="$$(5,1,5)$$" style="rounded=1;whiteSpace=wrap;html=1;fillColor=#d5e8d4;strokeColor=#82b366;fontSize=16;strokeWidth=2;" vertex="1" parent="1">
          <mxGeometry x="374" y="709" width="60" height="60" as="geometry" />
        </mxCell>
        <mxCell id="RwjSKkJ2c-AfhbRD7why-68" value="$$(1,1,5)$$" style="rounded=1;whiteSpace=wrap;html=1;fillColor=#d5e8d4;strokeColor=#82b366;fontSize=16;strokeWidth=2;" vertex="1" parent="1">
          <mxGeometry x="496" y="709" width="60" height="60" as="geometry" />
        </mxCell>
        <mxCell id="RwjSKkJ2c-AfhbRD7why-69" style="rounded=0;orthogonalLoop=1;jettySize=auto;html=1;exitX=0.5;exitY=1;exitDx=0;exitDy=0;entryX=0.5;entryY=0;entryDx=0;entryDy=0;strokeWidth=2;strokeColor=#4D4D4D;endArrow=block;endFill=1;" edge="1" parent="1" source="RwjSKkJ2c-AfhbRD7why-63" target="RwjSKkJ2c-AfhbRD7why-67">
          <mxGeometry relative="1" as="geometry">
            <mxPoint x="414" y="525" as="sourcePoint" />
            <mxPoint x="414" y="593" as="targetPoint" />
          </mxGeometry>
        </mxCell>
        <mxCell id="RwjSKkJ2c-AfhbRD7why-70" style="rounded=0;orthogonalLoop=1;jettySize=auto;html=1;exitX=0.5;exitY=1;exitDx=0;exitDy=0;entryX=0.5;entryY=0;entryDx=0;entryDy=0;strokeWidth=2;strokeColor=#4D4D4D;endArrow=block;endFill=1;" edge="1" parent="1" source="RwjSKkJ2c-AfhbRD7why-64" target="RwjSKkJ2c-AfhbRD7why-68">
          <mxGeometry relative="1" as="geometry">
            <mxPoint x="434" y="535" as="sourcePoint" />
            <mxPoint x="434" y="603" as="targetPoint" />
          </mxGeometry>
        </mxCell>
        <mxCell id="RwjSKkJ2c-AfhbRD7why-71" value="$$-1$$" style="ellipse;whiteSpace=wrap;html=1;aspect=fixed;fillColor=#f8cecc;strokeColor=#b85450;fontStyle=1;fontSize=14;" vertex="1" parent="1">
          <mxGeometry x="399" y="402" width="30" height="30" as="geometry" />
        </mxCell>
        <mxCell id="RwjSKkJ2c-AfhbRD7why-72" value="$$-1$$" style="ellipse;whiteSpace=wrap;html=1;aspect=fixed;fillColor=#f8cecc;strokeColor=#b85450;fontStyle=1;fontSize=14;" vertex="1" parent="1">
          <mxGeometry x="453" y="527" width="30" height="30" as="geometry" />
        </mxCell>
        <mxCell id="RwjSKkJ2c-AfhbRD7why-73" value="$$-1$$" style="ellipse;whiteSpace=wrap;html=1;aspect=fixed;fillColor=#f8cecc;strokeColor=#b85450;fontStyle=1;fontSize=14;" vertex="1" parent="1">
          <mxGeometry x="521" y="657" width="30" height="30" as="geometry" />
        </mxCell>
        <mxCell id="RwjSKkJ2c-AfhbRD7why-74" value="$$-1$$" style="ellipse;whiteSpace=wrap;html=1;aspect=fixed;fillColor=#f8cecc;strokeColor=#b85450;fontStyle=1;fontSize=14;" vertex="1" parent="1">
          <mxGeometry x="399" y="657" width="30" height="30" as="geometry" />
        </mxCell>
        <mxCell id="RwjSKkJ2c-AfhbRD7why-75" value="$$-1$$" style="ellipse;whiteSpace=wrap;html=1;aspect=fixed;fillColor=#f8cecc;strokeColor=#b85450;fontStyle=1;fontSize=14;" vertex="1" parent="1">
          <mxGeometry x="588" y="527" width="30" height="30" as="geometry" />
        </mxCell>
        <mxCell id="RwjSKkJ2c-AfhbRD7why-76" value="$$\sum t_{ij} = -2$$" style="text;html=1;strokeColor=none;fillColor=none;align=center;verticalAlign=middle;whiteSpace=wrap;rounded=0;fontSize=17;" vertex="1" parent="1">
          <mxGeometry x="375" y="792" width="60" height="30" as="geometry" />
        </mxCell>
        <mxCell id="RwjSKkJ2c-AfhbRD7why-77" value="$$\sum t_{ij} = -3$$" style="text;html=1;strokeColor=none;fillColor=none;align=center;verticalAlign=middle;whiteSpace=wrap;rounded=0;fontSize=17;" vertex="1" parent="1">
          <mxGeometry x="496" y="792" width="60" height="30" as="geometry" />
        </mxCell>
        <mxCell id="RwjSKkJ2c-AfhbRD7why-78" value="$$\sum t_{ij} = -1$$" style="text;html=1;strokeColor=none;fillColor=none;align=center;verticalAlign=middle;whiteSpace=wrap;rounded=0;fontSize=17;" vertex="1" parent="1">
          <mxGeometry x="632" y="792" width="60" height="30" as="geometry" />
        </mxCell>
        <mxCell id="RwjSKkJ2c-AfhbRD7why-79" value="Here&#39;s a good example of why we can&#39;t memoize the values at each node... So we would need to use DFS to find the first leaf node with a value of 1 without memoizing anything. So where does the DP element come into play? What could we memoize?" style="text;html=1;strokeColor=none;fillColor=none;align=center;verticalAlign=middle;whiteSpace=wrap;rounded=0;fontSize=16;" vertex="1" parent="1">
          <mxGeometry x="288.5" y="855" width="378" height="73" as="geometry" />
        </mxCell>
        <mxCell id="RwjSKkJ2c-AfhbRD7why-83" value="$$1$$" style="rounded=0;whiteSpace=wrap;html=1;fontSize=18;" vertex="1" parent="1">
          <mxGeometry x="1135" y="180" width="64" height="64" as="geometry" />
        </mxCell>
        <mxCell id="RwjSKkJ2c-AfhbRD7why-84" value="$$2$$" style="rounded=0;whiteSpace=wrap;html=1;fontSize=18;" vertex="1" parent="1">
          <mxGeometry x="1199" y="180" width="64" height="64" as="geometry" />
        </mxCell>
        <mxCell id="RwjSKkJ2c-AfhbRD7why-85" style="rounded=0;orthogonalLoop=1;jettySize=auto;html=1;exitX=0.5;exitY=1;exitDx=0;exitDy=0;entryX=0.5;entryY=0;entryDx=0;entryDy=0;strokeWidth=2;strokeColor=#4D4D4D;endArrow=block;endFill=1;" edge="1" parent="1" source="RwjSKkJ2c-AfhbRD7why-86" target="RwjSKkJ2c-AfhbRD7why-91">
          <mxGeometry relative="1" as="geometry" />
        </mxCell>
        <mxCell id="RwjSKkJ2c-AfhbRD7why-86" value="$$3$$" style="rounded=0;whiteSpace=wrap;html=1;fontSize=18;" vertex="1" parent="1">
          <mxGeometry x="1263" y="180" width="64" height="64" as="geometry" />
        </mxCell>
        <mxCell id="RwjSKkJ2c-AfhbRD7why-87" value="$$4$$" style="rounded=0;whiteSpace=wrap;html=1;fontSize=18;" vertex="1" parent="1">
          <mxGeometry x="1327" y="180" width="64" height="64" as="geometry" />
        </mxCell>
        <mxCell id="RwjSKkJ2c-AfhbRD7why-88" value="$$5$$" style="rounded=0;whiteSpace=wrap;html=1;fontSize=18;" vertex="1" parent="1">
          <mxGeometry x="1391" y="180" width="64" height="64" as="geometry" />
        </mxCell>
        <mxCell id="RwjSKkJ2c-AfhbRD7why-89" value="$$n=5$$" style="text;html=1;strokeColor=none;fillColor=none;align=center;verticalAlign=middle;whiteSpace=wrap;rounded=0;fontSize=14;" vertex="1" parent="1">
          <mxGeometry x="1393" y="147" width="60" height="30" as="geometry" />
        </mxCell>
        <mxCell id="RwjSKkJ2c-AfhbRD7why-90" value="$$s=3$$" style="text;html=1;strokeColor=none;fillColor=none;align=center;verticalAlign=middle;whiteSpace=wrap;rounded=0;fontSize=14;" vertex="1" parent="1">
          <mxGeometry x="1265" y="147" width="60" height="30" as="geometry" />
        </mxCell>
        <mxCell id="RwjSKkJ2c-AfhbRD7why-91" value="$$(2,2, 3)$$" style="rounded=1;whiteSpace=wrap;html=1;fillColor=#dae8fc;strokeColor=#6c8ebf;fontSize=16;strokeWidth=2;" vertex="1" parent="1">
          <mxGeometry x="1201" y="318" width="60" height="60" as="geometry" />
        </mxCell>
        <mxCell id="RwjSKkJ2c-AfhbRD7why-92" value="$$(4, 3, 4)$$" style="rounded=1;whiteSpace=wrap;html=1;fillColor=#dae8fc;strokeColor=#6c8ebf;fontSize=16;strokeWidth=2;" vertex="1" parent="1">
          <mxGeometry x="1329" y="318" width="60" height="60" as="geometry" />
        </mxCell>
        <mxCell id="RwjSKkJ2c-AfhbRD7why-93" style="rounded=0;orthogonalLoop=1;jettySize=auto;html=1;exitX=0.5;exitY=1;exitDx=0;exitDy=0;entryX=0.5;entryY=0;entryDx=0;entryDy=0;strokeWidth=2;strokeColor=#4D4D4D;endArrow=block;endFill=1;" edge="1" parent="1" source="RwjSKkJ2c-AfhbRD7why-86" target="RwjSKkJ2c-AfhbRD7why-92">
          <mxGeometry relative="1" as="geometry">
            <mxPoint x="1305" y="254" as="sourcePoint" />
            <mxPoint x="1241" y="328" as="targetPoint" />
          </mxGeometry>
        </mxCell>
        <mxCell id="RwjSKkJ2c-AfhbRD7why-94" value="Toy problem in which&amp;nbsp; &amp;nbsp; &amp;nbsp; &amp;nbsp; &amp;nbsp; &amp;nbsp; &amp;nbsp;:" style="text;html=1;strokeColor=none;fillColor=none;align=center;verticalAlign=middle;whiteSpace=wrap;rounded=0;fontSize=15;" vertex="1" parent="1">
          <mxGeometry x="1194.5" y="102" width="201" height="30" as="geometry" />
        </mxCell>
        <mxCell id="RwjSKkJ2c-AfhbRD7why-95" value="$$n=5$$" style="text;html=1;strokeColor=none;fillColor=none;align=center;verticalAlign=middle;whiteSpace=wrap;rounded=0;fontSize=15;" vertex="1" parent="1">
          <mxGeometry x="1332.5" y="102" width="60" height="30" as="geometry" />
        </mxCell>
        <mxCell id="RwjSKkJ2c-AfhbRD7why-96" value="$$(1,1, 3)$$" style="rounded=1;whiteSpace=wrap;html=1;fillColor=#dae8fc;strokeColor=#6c8ebf;fontSize=16;strokeWidth=2;" vertex="1" parent="1">
          <mxGeometry x="1068" y="455" width="60" height="60" as="geometry" />
        </mxCell>
        <mxCell id="RwjSKkJ2c-AfhbRD7why-97" value="$$(4,2, 4)$$" style="rounded=1;whiteSpace=wrap;html=1;fillColor=#dae8fc;strokeColor=#6c8ebf;fontSize=16;strokeWidth=2;" vertex="1" parent="1">
          <mxGeometry x="1201" y="455" width="60" height="60" as="geometry" />
        </mxCell>
        <mxCell id="RwjSKkJ2c-AfhbRD7why-98" style="rounded=0;orthogonalLoop=1;jettySize=auto;html=1;exitX=0.5;exitY=1;exitDx=0;exitDy=0;entryX=0.5;entryY=0;entryDx=0;entryDy=0;strokeWidth=2;strokeColor=#4D4D4D;endArrow=block;endFill=1;" edge="1" parent="1" source="RwjSKkJ2c-AfhbRD7why-91" target="RwjSKkJ2c-AfhbRD7why-96">
          <mxGeometry relative="1" as="geometry">
            <mxPoint x="1305" y="254" as="sourcePoint" />
            <mxPoint x="1241" y="328" as="targetPoint" />
          </mxGeometry>
        </mxCell>
        <mxCell id="RwjSKkJ2c-AfhbRD7why-99" style="rounded=0;orthogonalLoop=1;jettySize=auto;html=1;exitX=0.5;exitY=1;exitDx=0;exitDy=0;entryX=0.5;entryY=0;entryDx=0;entryDy=0;strokeWidth=2;strokeColor=#4D4D4D;endArrow=block;endFill=1;" edge="1" parent="1" source="RwjSKkJ2c-AfhbRD7why-91" target="RwjSKkJ2c-AfhbRD7why-97">
          <mxGeometry relative="1" as="geometry">
            <mxPoint x="1241" y="388" as="sourcePoint" />
            <mxPoint x="1108" y="465" as="targetPoint" />
          </mxGeometry>
        </mxCell>
        <mxCell id="RwjSKkJ2c-AfhbRD7why-100" value="$$-2$$" style="ellipse;whiteSpace=wrap;html=1;aspect=fixed;fillColor=#f8cecc;strokeColor=#b85450;fontStyle=1;fontSize=14;" vertex="1" parent="1">
          <mxGeometry x="1225" y="402" width="30" height="30" as="geometry" />
        </mxCell>
        <mxCell id="RwjSKkJ2c-AfhbRD7why-101" value="$$(i, j)$$" style="rounded=1;whiteSpace=wrap;html=1;fillColor=#dae8fc;strokeColor=#6c8ebf;fontSize=16;strokeWidth=2;" vertex="1" parent="1">
          <mxGeometry x="939.5" y="318" width="60" height="60" as="geometry" />
        </mxCell>
        <mxCell id="RwjSKkJ2c-AfhbRD7why-102" value="Each node denotes (i, j)" style="text;html=1;strokeColor=none;fillColor=none;align=center;verticalAlign=middle;whiteSpace=wrap;rounded=0;fontSize=16;" vertex="1" parent="1">
          <mxGeometry x="924" y="276" width="91" height="30" as="geometry" />
        </mxCell>
        <mxCell id="RwjSKkJ2c-AfhbRD7why-103" value="Assumptions" style="text;html=1;strokeColor=none;fillColor=none;align=center;verticalAlign=middle;whiteSpace=wrap;rounded=0;fontStyle=1;fontSize=15;" vertex="1" parent="1">
          <mxGeometry x="882.5" y="140" width="87" height="22" as="geometry" />
        </mxCell>
        <mxCell id="RwjSKkJ2c-AfhbRD7why-104" value="$$c_i$$" style="text;html=1;strokeColor=none;fillColor=none;align=center;verticalAlign=middle;whiteSpace=wrap;rounded=0;fontSize=14;" vertex="1" parent="1">
          <mxGeometry x="872" y="170" width="26" height="22" as="geometry" />
        </mxCell>
        <mxCell id="RwjSKkJ2c-AfhbRD7why-105" value="is independent of actions" style="text;html=1;strokeColor=none;fillColor=none;align=left;verticalAlign=middle;whiteSpace=wrap;rounded=0;fontSize=14;" vertex="1" parent="1">
          <mxGeometry x="898" y="170" width="167" height="22" as="geometry" />
        </mxCell>
        <mxCell id="RwjSKkJ2c-AfhbRD7why-108" value="$$(4,1, 4)$$" style="rounded=1;whiteSpace=wrap;html=1;fillColor=#dae8fc;strokeColor=#6c8ebf;fontSize=16;strokeWidth=2;" vertex="1" parent="1">
          <mxGeometry x="959" y="583" width="60" height="60" as="geometry" />
        </mxCell>
        <mxCell id="RwjSKkJ2c-AfhbRD7why-109" style="rounded=0;orthogonalLoop=1;jettySize=auto;html=1;exitX=0.5;exitY=1;exitDx=0;exitDy=0;entryX=0.5;entryY=0;entryDx=0;entryDy=0;strokeWidth=2;strokeColor=#4D4D4D;endArrow=block;endFill=1;" edge="1" parent="1" source="RwjSKkJ2c-AfhbRD7why-96" target="RwjSKkJ2c-AfhbRD7why-108">
          <mxGeometry relative="1" as="geometry">
            <mxPoint x="1241" y="388" as="sourcePoint" />
            <mxPoint x="1108" y="465" as="targetPoint" />
          </mxGeometry>
        </mxCell>
        <mxCell id="RwjSKkJ2c-AfhbRD7why-110" value="$$(5,1, 5)$$" style="rounded=1;whiteSpace=wrap;html=1;fillColor=#dae8fc;strokeColor=#6c8ebf;fontSize=16;strokeWidth=2;" vertex="1" parent="1">
          <mxGeometry x="959" y="709" width="60" height="60" as="geometry" />
        </mxCell>
        <mxCell id="RwjSKkJ2c-AfhbRD7why-111" style="rounded=0;orthogonalLoop=1;jettySize=auto;html=1;exitX=0.5;exitY=1;exitDx=0;exitDy=0;entryX=0.5;entryY=0;entryDx=0;entryDy=0;strokeWidth=2;strokeColor=#4D4D4D;endArrow=block;endFill=1;" edge="1" parent="1" source="RwjSKkJ2c-AfhbRD7why-108" target="RwjSKkJ2c-AfhbRD7why-110">
          <mxGeometry relative="1" as="geometry">
            <mxPoint x="999" y="527" as="sourcePoint" />
            <mxPoint x="999" y="593" as="targetPoint" />
          </mxGeometry>
        </mxCell>
        <mxCell id="RwjSKkJ2c-AfhbRD7why-112" value="$$-3$$" style="ellipse;whiteSpace=wrap;html=1;aspect=fixed;fillColor=#f8cecc;strokeColor=#b85450;fontStyle=1;fontSize=14;" vertex="1" parent="1">
          <mxGeometry x="1024" y="524" width="30" height="30" as="geometry" />
        </mxCell>
        <mxCell id="RwjSKkJ2c-AfhbRD7why-113" value="$$\sum t_{ij} = -3$$" style="text;html=1;strokeColor=none;fillColor=none;align=center;verticalAlign=middle;whiteSpace=wrap;rounded=0;fontSize=17;" vertex="1" parent="1">
          <mxGeometry x="959" y="792" width="60" height="30" as="geometry" />
        </mxCell>
        <mxCell id="RwjSKkJ2c-AfhbRD7why-114" value="$$(1,1, 4)$$" style="rounded=1;whiteSpace=wrap;html=1;fillColor=#dae8fc;strokeColor=#6c8ebf;fontSize=16;strokeWidth=2;" vertex="1" parent="1">
          <mxGeometry x="1086" y="583" width="60" height="60" as="geometry" />
        </mxCell>
        <mxCell id="RwjSKkJ2c-AfhbRD7why-115" value="$$(5,2, 5)$$" style="rounded=1;whiteSpace=wrap;html=1;fillColor=#dae8fc;strokeColor=#6c8ebf;fontSize=16;strokeWidth=2;" vertex="1" parent="1">
          <mxGeometry x="1201" y="583" width="60" height="60" as="geometry" />
        </mxCell>
        <mxCell id="RwjSKkJ2c-AfhbRD7why-116" value="$$(5,1, 5)$$" style="rounded=1;whiteSpace=wrap;html=1;fillColor=#dae8fc;strokeColor=#6c8ebf;fontSize=16;strokeWidth=2;" vertex="1" parent="1">
          <mxGeometry x="1086" y="709" width="60" height="60" as="geometry" />
        </mxCell>
        <mxCell id="RwjSKkJ2c-AfhbRD7why-117" value="$$(1,1, 5)$$" style="rounded=1;whiteSpace=wrap;html=1;fillColor=#dae8fc;strokeColor=#6c8ebf;fontSize=16;strokeWidth=2;" vertex="1" parent="1">
          <mxGeometry x="1201" y="709" width="60" height="60" as="geometry" />
        </mxCell>
        <mxCell id="RwjSKkJ2c-AfhbRD7why-118" style="rounded=0;orthogonalLoop=1;jettySize=auto;html=1;exitX=0.5;exitY=1;exitDx=0;exitDy=0;entryX=0.5;entryY=0;entryDx=0;entryDy=0;strokeWidth=2;strokeColor=#4D4D4D;endArrow=block;endFill=1;" edge="1" parent="1" source="RwjSKkJ2c-AfhbRD7why-97" target="RwjSKkJ2c-AfhbRD7why-114">
          <mxGeometry relative="1" as="geometry">
            <mxPoint x="1241" y="388" as="sourcePoint" />
            <mxPoint x="1108" y="465" as="targetPoint" />
          </mxGeometry>
        </mxCell>
        <mxCell id="RwjSKkJ2c-AfhbRD7why-119" style="rounded=0;orthogonalLoop=1;jettySize=auto;html=1;exitX=0.5;exitY=1;exitDx=0;exitDy=0;entryX=0.5;entryY=0;entryDx=0;entryDy=0;strokeWidth=2;strokeColor=#4D4D4D;endArrow=block;endFill=1;" edge="1" parent="1" source="RwjSKkJ2c-AfhbRD7why-97" target="RwjSKkJ2c-AfhbRD7why-115">
          <mxGeometry relative="1" as="geometry">
            <mxPoint x="1251" y="398" as="sourcePoint" />
            <mxPoint x="1118" y="475" as="targetPoint" />
          </mxGeometry>
        </mxCell>
        <mxCell id="RwjSKkJ2c-AfhbRD7why-120" style="rounded=0;orthogonalLoop=1;jettySize=auto;html=1;exitX=0.5;exitY=1;exitDx=0;exitDy=0;entryX=0.5;entryY=0;entryDx=0;entryDy=0;strokeWidth=2;strokeColor=#4D4D4D;endArrow=block;endFill=1;" edge="1" parent="1" source="RwjSKkJ2c-AfhbRD7why-114" target="RwjSKkJ2c-AfhbRD7why-116">
          <mxGeometry relative="1" as="geometry">
            <mxPoint x="1261" y="408" as="sourcePoint" />
            <mxPoint x="1128" y="485" as="targetPoint" />
          </mxGeometry>
        </mxCell>
        <mxCell id="RwjSKkJ2c-AfhbRD7why-121" style="rounded=0;orthogonalLoop=1;jettySize=auto;html=1;exitX=0.5;exitY=1;exitDx=0;exitDy=0;entryX=0.5;entryY=0;entryDx=0;entryDy=0;strokeWidth=2;strokeColor=#4D4D4D;endArrow=block;endFill=1;" edge="1" parent="1" source="RwjSKkJ2c-AfhbRD7why-115" target="RwjSKkJ2c-AfhbRD7why-117">
          <mxGeometry relative="1" as="geometry">
            <mxPoint x="1271" y="418" as="sourcePoint" />
            <mxPoint x="1138" y="495" as="targetPoint" />
          </mxGeometry>
        </mxCell>
        <mxCell id="RwjSKkJ2c-AfhbRD7why-122" value="$$-3$$" style="ellipse;whiteSpace=wrap;html=1;aspect=fixed;fillColor=#f8cecc;strokeColor=#b85450;fontStyle=1;fontSize=14;" vertex="1" parent="1">
          <mxGeometry x="1162" y="541" width="30" height="30" as="geometry" />
        </mxCell>
        <mxCell id="RwjSKkJ2c-AfhbRD7why-123" value="$$-4$$" style="ellipse;whiteSpace=wrap;html=1;aspect=fixed;fillColor=#f8cecc;strokeColor=#b85450;fontStyle=1;fontSize=14;" vertex="1" parent="1">
          <mxGeometry x="1110" y="657" width="30" height="30" as="geometry" />
        </mxCell>
        <mxCell id="RwjSKkJ2c-AfhbRD7why-124" value="$$-4$$" style="ellipse;whiteSpace=wrap;html=1;aspect=fixed;fillColor=#f8cecc;strokeColor=#b85450;fontStyle=1;fontSize=14;" vertex="1" parent="1">
          <mxGeometry x="1225" y="657" width="30" height="30" as="geometry" />
        </mxCell>
        <mxCell id="RwjSKkJ2c-AfhbRD7why-125" value="$$\sum t_{ij} = -9$$" style="text;html=1;strokeColor=none;fillColor=none;align=center;verticalAlign=middle;whiteSpace=wrap;rounded=0;fontSize=17;" vertex="1" parent="1">
          <mxGeometry x="1086" y="792" width="60" height="30" as="geometry" />
        </mxCell>
        <mxCell id="RwjSKkJ2c-AfhbRD7why-126" value="$$\sum t_{ij} = -6$$" style="text;html=1;strokeColor=none;fillColor=none;align=center;verticalAlign=middle;whiteSpace=wrap;rounded=0;fontSize=17;" vertex="1" parent="1">
          <mxGeometry x="1201" y="792" width="60" height="30" as="geometry" />
        </mxCell>
        <mxCell id="RwjSKkJ2c-AfhbRD7why-127" value="$$(s, i, j)$$" style="rounded=1;whiteSpace=wrap;html=1;fillColor=#dae8fc;strokeColor=#6c8ebf;fontSize=16;strokeWidth=2;" vertex="1" parent="1">
          <mxGeometry x="1561.5" y="318" width="60" height="60" as="geometry" />
        </mxCell>
        <mxCell id="RwjSKkJ2c-AfhbRD7why-128" value="Each node denotes (s, i, j)" style="text;html=1;strokeColor=none;fillColor=none;align=center;verticalAlign=middle;whiteSpace=wrap;rounded=0;fontSize=16;" vertex="1" parent="1">
          <mxGeometry x="1532" y="276" width="119" height="30" as="geometry" />
        </mxCell>
        <mxCell id="RwjSKkJ2c-AfhbRD7why-129" value="$$(2,2,4)$$" style="rounded=1;whiteSpace=wrap;html=1;fillColor=#dae8fc;strokeColor=#6c8ebf;fontSize=16;strokeWidth=2;" vertex="1" parent="1">
          <mxGeometry x="1329" y="455" width="60" height="60" as="geometry" />
        </mxCell>
        <mxCell id="RwjSKkJ2c-AfhbRD7why-130" value="$$(5,3,5)$$" style="rounded=1;whiteSpace=wrap;html=1;fillColor=#dae8fc;strokeColor=#6c8ebf;fontSize=16;strokeWidth=2;" vertex="1" parent="1">
          <mxGeometry x="1462" y="455" width="60" height="60" as="geometry" />
        </mxCell>
        <mxCell id="RwjSKkJ2c-AfhbRD7why-131" style="rounded=0;orthogonalLoop=1;jettySize=auto;html=1;exitX=0.5;exitY=1;exitDx=0;exitDy=0;entryX=0.5;entryY=0;entryDx=0;entryDy=0;strokeWidth=2;strokeColor=#4D4D4D;endArrow=block;endFill=1;" edge="1" parent="1" source="RwjSKkJ2c-AfhbRD7why-92" target="RwjSKkJ2c-AfhbRD7why-129">
          <mxGeometry relative="1" as="geometry">
            <mxPoint x="1241" y="388" as="sourcePoint" />
            <mxPoint x="1108" y="465" as="targetPoint" />
          </mxGeometry>
        </mxCell>
        <mxCell id="RwjSKkJ2c-AfhbRD7why-132" style="rounded=0;orthogonalLoop=1;jettySize=auto;html=1;exitX=0.5;exitY=1;exitDx=0;exitDy=0;entryX=0.5;entryY=0;entryDx=0;entryDy=0;strokeWidth=2;strokeColor=#4D4D4D;endArrow=block;endFill=1;" edge="1" parent="1" source="RwjSKkJ2c-AfhbRD7why-92" target="RwjSKkJ2c-AfhbRD7why-130">
          <mxGeometry relative="1" as="geometry">
            <mxPoint x="1251" y="398" as="sourcePoint" />
            <mxPoint x="1118" y="475" as="targetPoint" />
          </mxGeometry>
        </mxCell>
        <mxCell id="RwjSKkJ2c-AfhbRD7why-133" value="$$(2,2,5)$$" style="rounded=1;whiteSpace=wrap;html=1;fillColor=#dae8fc;strokeColor=#6c8ebf;fontSize=16;strokeWidth=2;" vertex="1" parent="1">
          <mxGeometry x="1587" y="583" width="60" height="60" as="geometry" />
        </mxCell>
        <mxCell id="RwjSKkJ2c-AfhbRD7why-134" value="$$(1,1,5)$$" style="rounded=1;whiteSpace=wrap;html=1;fillColor=#dae8fc;strokeColor=#6c8ebf;fontSize=16;strokeWidth=2;" vertex="1" parent="1">
          <mxGeometry x="1587" y="709" width="60" height="60" as="geometry" />
        </mxCell>
        <mxCell id="RwjSKkJ2c-AfhbRD7why-135" style="rounded=0;orthogonalLoop=1;jettySize=auto;html=1;exitX=0.5;exitY=1;exitDx=0;exitDy=0;entryX=0.5;entryY=0;entryDx=0;entryDy=0;strokeWidth=2;strokeColor=#4D4D4D;endArrow=block;endFill=1;" edge="1" parent="1" source="RwjSKkJ2c-AfhbRD7why-130" target="RwjSKkJ2c-AfhbRD7why-133">
          <mxGeometry relative="1" as="geometry">
            <mxPoint x="1369" y="388" as="sourcePoint" />
            <mxPoint x="1502" y="465" as="targetPoint" />
          </mxGeometry>
        </mxCell>
        <mxCell id="RwjSKkJ2c-AfhbRD7why-136" style="rounded=0;orthogonalLoop=1;jettySize=auto;html=1;exitX=0.5;exitY=1;exitDx=0;exitDy=0;entryX=0.5;entryY=0;entryDx=0;entryDy=0;strokeWidth=2;strokeColor=#4D4D4D;endArrow=block;endFill=1;" edge="1" parent="1" source="RwjSKkJ2c-AfhbRD7why-133" target="RwjSKkJ2c-AfhbRD7why-134">
          <mxGeometry relative="1" as="geometry">
            <mxPoint x="1379" y="398" as="sourcePoint" />
            <mxPoint x="1512" y="475" as="targetPoint" />
          </mxGeometry>
        </mxCell>
        <mxCell id="RwjSKkJ2c-AfhbRD7why-137" value="$$(1,1,4)$$" style="rounded=1;whiteSpace=wrap;html=1;fillColor=#d5e8d4;strokeColor=#82b366;fontSize=16;strokeWidth=2;" vertex="1" parent="1">
          <mxGeometry x="1329" y="583" width="60" height="60" as="geometry" />
        </mxCell>
        <mxCell id="RwjSKkJ2c-AfhbRD7why-138" value="$$(5,2,5)$$" style="rounded=1;whiteSpace=wrap;html=1;fillColor=#d5e8d4;strokeColor=#82b366;fontSize=16;strokeWidth=2;" vertex="1" parent="1">
          <mxGeometry x="1451" y="583" width="60" height="60" as="geometry" />
        </mxCell>
        <mxCell id="RwjSKkJ2c-AfhbRD7why-139" style="rounded=0;orthogonalLoop=1;jettySize=auto;html=1;exitX=0.5;exitY=1;exitDx=0;exitDy=0;entryX=0.5;entryY=0;entryDx=0;entryDy=0;strokeWidth=2;strokeColor=#4D4D4D;endArrow=block;endFill=1;" edge="1" parent="1" source="RwjSKkJ2c-AfhbRD7why-129" target="RwjSKkJ2c-AfhbRD7why-137">
          <mxGeometry relative="1" as="geometry">
            <mxPoint x="1369" y="388" as="sourcePoint" />
            <mxPoint x="1369" y="465" as="targetPoint" />
          </mxGeometry>
        </mxCell>
        <mxCell id="RwjSKkJ2c-AfhbRD7why-140" style="rounded=0;orthogonalLoop=1;jettySize=auto;html=1;exitX=0.5;exitY=1;exitDx=0;exitDy=0;entryX=0.5;entryY=0;entryDx=0;entryDy=0;strokeWidth=2;strokeColor=#4D4D4D;endArrow=block;endFill=1;" edge="1" parent="1" source="RwjSKkJ2c-AfhbRD7why-129" target="RwjSKkJ2c-AfhbRD7why-138">
          <mxGeometry relative="1" as="geometry">
            <mxPoint x="1379" y="398" as="sourcePoint" />
            <mxPoint x="1379" y="475" as="targetPoint" />
          </mxGeometry>
        </mxCell>
        <mxCell id="RwjSKkJ2c-AfhbRD7why-141" value="$$(5,1,5)$$" style="rounded=1;whiteSpace=wrap;html=1;fillColor=#d5e8d4;strokeColor=#82b366;fontSize=16;strokeWidth=2;" vertex="1" parent="1">
          <mxGeometry x="1329" y="709" width="60" height="60" as="geometry" />
        </mxCell>
        <mxCell id="RwjSKkJ2c-AfhbRD7why-142" value="$$(1,1,5)$$" style="rounded=1;whiteSpace=wrap;html=1;fillColor=#d5e8d4;strokeColor=#82b366;fontSize=16;strokeWidth=2;" vertex="1" parent="1">
          <mxGeometry x="1451" y="709" width="60" height="60" as="geometry" />
        </mxCell>
        <mxCell id="RwjSKkJ2c-AfhbRD7why-143" style="rounded=0;orthogonalLoop=1;jettySize=auto;html=1;exitX=0.5;exitY=1;exitDx=0;exitDy=0;entryX=0.5;entryY=0;entryDx=0;entryDy=0;strokeWidth=2;strokeColor=#4D4D4D;endArrow=block;endFill=1;" edge="1" parent="1" source="RwjSKkJ2c-AfhbRD7why-137" target="RwjSKkJ2c-AfhbRD7why-141">
          <mxGeometry relative="1" as="geometry">
            <mxPoint x="1369" y="525" as="sourcePoint" />
            <mxPoint x="1369" y="593" as="targetPoint" />
          </mxGeometry>
        </mxCell>
        <mxCell id="RwjSKkJ2c-AfhbRD7why-144" style="rounded=0;orthogonalLoop=1;jettySize=auto;html=1;exitX=0.5;exitY=1;exitDx=0;exitDy=0;entryX=0.5;entryY=0;entryDx=0;entryDy=0;strokeWidth=2;strokeColor=#4D4D4D;endArrow=block;endFill=1;" edge="1" parent="1" source="RwjSKkJ2c-AfhbRD7why-138" target="RwjSKkJ2c-AfhbRD7why-142">
          <mxGeometry relative="1" as="geometry">
            <mxPoint x="1389" y="535" as="sourcePoint" />
            <mxPoint x="1389" y="603" as="targetPoint" />
          </mxGeometry>
        </mxCell>
        <mxCell id="RwjSKkJ2c-AfhbRD7why-145" value="$$-2$$" style="ellipse;whiteSpace=wrap;html=1;aspect=fixed;fillColor=#f8cecc;strokeColor=#b85450;fontStyle=1;fontSize=14;" vertex="1" parent="1">
          <mxGeometry x="1354" y="402" width="30" height="30" as="geometry" />
        </mxCell>
        <mxCell id="RwjSKkJ2c-AfhbRD7why-146" value="$$-3$$" style="ellipse;whiteSpace=wrap;html=1;aspect=fixed;fillColor=#f8cecc;strokeColor=#b85450;fontStyle=1;fontSize=14;" vertex="1" parent="1">
          <mxGeometry x="1408" y="527" width="30" height="30" as="geometry" />
        </mxCell>
        <mxCell id="RwjSKkJ2c-AfhbRD7why-147" value="$$-4$$" style="ellipse;whiteSpace=wrap;html=1;aspect=fixed;fillColor=#f8cecc;strokeColor=#b85450;fontStyle=1;fontSize=14;" vertex="1" parent="1">
          <mxGeometry x="1476" y="657" width="30" height="30" as="geometry" />
        </mxCell>
        <mxCell id="RwjSKkJ2c-AfhbRD7why-148" value="$$-4$$" style="ellipse;whiteSpace=wrap;html=1;aspect=fixed;fillColor=#f8cecc;strokeColor=#b85450;fontStyle=1;fontSize=14;" vertex="1" parent="1">
          <mxGeometry x="1354" y="657" width="30" height="30" as="geometry" />
        </mxCell>
        <mxCell id="RwjSKkJ2c-AfhbRD7why-149" value="$$-3$$" style="ellipse;whiteSpace=wrap;html=1;aspect=fixed;fillColor=#f8cecc;strokeColor=#b85450;fontStyle=1;fontSize=14;" vertex="1" parent="1">
          <mxGeometry x="1543" y="527" width="30" height="30" as="geometry" />
        </mxCell>
        <mxCell id="RwjSKkJ2c-AfhbRD7why-150" value="$$\sum t_{ij} = -6$$" style="text;html=1;strokeColor=none;fillColor=none;align=center;verticalAlign=middle;whiteSpace=wrap;rounded=0;fontSize=17;" vertex="1" parent="1">
          <mxGeometry x="1330" y="792" width="60" height="30" as="geometry" />
        </mxCell>
        <mxCell id="RwjSKkJ2c-AfhbRD7why-151" value="$$\sum t_{ij} = -9$$" style="text;html=1;strokeColor=none;fillColor=none;align=center;verticalAlign=middle;whiteSpace=wrap;rounded=0;fontSize=17;" vertex="1" parent="1">
          <mxGeometry x="1451" y="792" width="60" height="30" as="geometry" />
        </mxCell>
        <mxCell id="RwjSKkJ2c-AfhbRD7why-152" value="$$\sum t_{ij} = -3$$" style="text;html=1;strokeColor=none;fillColor=none;align=center;verticalAlign=middle;whiteSpace=wrap;rounded=0;fontSize=17;" vertex="1" parent="1">
          <mxGeometry x="1587" y="792" width="60" height="30" as="geometry" />
        </mxCell>
        <mxCell id="RwjSKkJ2c-AfhbRD7why-153" value="Here&#39;s a good example of why we can&#39;t memoize the values at each node... So we would need to use DFS to find the first leaf node with a value of 1 without memoizing anything. So where does the DP element come into play? What could we memoize?" style="text;html=1;strokeColor=none;fillColor=none;align=center;verticalAlign=middle;whiteSpace=wrap;rounded=0;fontSize=16;" vertex="1" parent="1">
          <mxGeometry x="1243.5" y="855" width="378" height="73" as="geometry" />
        </mxCell>
        <mxCell id="RwjSKkJ2c-AfhbRD7why-154" value="PROBLEM 6" style="text;html=1;strokeColor=none;fillColor=none;align=center;verticalAlign=middle;whiteSpace=wrap;rounded=0;fontSize=32;" vertex="1" parent="1">
          <mxGeometry x="618" y="-8" width="233" height="30" as="geometry" />
        </mxCell>
        <mxCell id="RwjSKkJ2c-AfhbRD7why-155" value="PROBLEM 1" style="text;html=1;strokeColor=none;fillColor=none;align=center;verticalAlign=middle;whiteSpace=wrap;rounded=0;fontSize=32;" vertex="1" parent="1">
          <mxGeometry x="711" y="-1073" width="233" height="30" as="geometry" />
        </mxCell>
        <mxCell id="RwjSKkJ2c-AfhbRD7why-156" value="&lt;font style=&quot;font-size: 22px;&quot;&gt;$$\mathbb{S}$$&lt;/font&gt;" style="ellipse;shape=cloud;whiteSpace=wrap;html=1;fontSize=22;" vertex="1" parent="1">
          <mxGeometry x="63" y="-785" width="332" height="232" as="geometry" />
        </mxCell>
        <mxCell id="RwjSKkJ2c-AfhbRD7why-157" value="Finite Set&amp;nbsp;" style="text;html=1;strokeColor=none;fillColor=none;align=center;verticalAlign=middle;whiteSpace=wrap;rounded=0;fontSize=16;" vertex="1" parent="1">
          <mxGeometry x="191" y="-565" width="84" height="30" as="geometry" />
        </mxCell>
        <mxCell id="RwjSKkJ2c-AfhbRD7why-158" value="$$\mathbb{S}$$" style="text;html=1;strokeColor=none;fillColor=none;align=center;verticalAlign=middle;whiteSpace=wrap;rounded=0;fontSize=16;" vertex="1" parent="1">
          <mxGeometry x="250" y="-565" width="60" height="30" as="geometry" />
        </mxCell>
        <mxCell id="RwjSKkJ2c-AfhbRD7why-162" value="" style="ellipse;whiteSpace=wrap;html=1;rotation=-45;strokeColor=#CCCCCC;dashed=1;" vertex="1" parent="1">
          <mxGeometry x="244" y="-644.38" width="90" height="46.25" as="geometry" />
        </mxCell>
        <mxCell id="RwjSKkJ2c-AfhbRD7why-163" value="" style="ellipse;whiteSpace=wrap;html=1;rotation=-45;strokeColor=#CCCCCC;dashed=1;" vertex="1" parent="1">
          <mxGeometry x="254.94000000000003" y="-638.76" width="68.11" height="35" as="geometry" />
        </mxCell>
        <mxCell id="RwjSKkJ2c-AfhbRD7why-164" value="" style="ellipse;whiteSpace=wrap;html=1;rotation=-45;strokeColor=#CCCCCC;dashed=1;" vertex="1" parent="1">
          <mxGeometry x="268.31" y="-631.89" width="41.37" height="21.26" as="geometry" />
        </mxCell>
        <mxCell id="RwjSKkJ2c-AfhbRD7why-165" value="$$W$$" style="text;html=1;strokeColor=none;fillColor=none;align=center;verticalAlign=middle;whiteSpace=wrap;rounded=0;fontSize=12;" vertex="1" parent="1">
          <mxGeometry x="469" y="-552.63" width="23" height="30" as="geometry" />
        </mxCell>
        <mxCell id="RwjSKkJ2c-AfhbRD7why-168" value="&lt;font style=&quot;font-size: 12px;&quot;&gt;is a random variable sampled from a distribution&amp;nbsp;&lt;/font&gt;" style="text;html=1;strokeColor=none;fillColor=none;align=left;verticalAlign=middle;whiteSpace=wrap;rounded=0;fontSize=16;" vertex="1" parent="1">
          <mxGeometry x="491" y="-554.76" width="284" height="30" as="geometry" />
        </mxCell>
        <mxCell id="RwjSKkJ2c-AfhbRD7why-169" value="$$D$$" style="text;html=1;strokeColor=none;fillColor=none;align=center;verticalAlign=middle;whiteSpace=wrap;rounded=0;fontSize=12;" vertex="1" parent="1">
          <mxGeometry x="749" y="-552.63" width="23" height="30" as="geometry" />
        </mxCell>
        <mxCell id="RwjSKkJ2c-AfhbRD7why-170" value="&lt;font style=&quot;font-size: 12px;&quot;&gt;that takes values in&amp;nbsp;&lt;/font&gt;" style="text;html=1;strokeColor=none;fillColor=none;align=left;verticalAlign=middle;whiteSpace=wrap;rounded=0;fontSize=16;" vertex="1" parent="1">
          <mxGeometry x="473" y="-534.88" width="284" height="30" as="geometry" />
        </mxCell>
        <mxCell id="RwjSKkJ2c-AfhbRD7why-171" value="$$\mathbb{S}$$" style="text;html=1;strokeColor=none;fillColor=none;align=center;verticalAlign=middle;whiteSpace=wrap;rounded=0;fontSize=12;" vertex="1" parent="1">
          <mxGeometry x="578" y="-532.88" width="23" height="30" as="geometry" />
        </mxCell>
        <mxCell id="RwjSKkJ2c-AfhbRD7why-172" value="$$W \sim D \in \mathbb{S}$$" style="rounded=1;whiteSpace=wrap;html=1;fontSize=16;fillColor=#dae8fc;strokeColor=#6c8ebf;" vertex="1" parent="1">
          <mxGeometry x="469" y="-601.88" width="130" height="47" as="geometry" />
        </mxCell>
        <mxCell id="RwjSKkJ2c-AfhbRD7why-174" value="" style="ellipse;whiteSpace=wrap;html=1;aspect=fixed;fillColor=#dae8fc;strokeColor=#6c8ebf;" vertex="1" parent="1">
          <mxGeometry x="294" y="-631.89" width="8" height="8" as="geometry" />
        </mxCell>
        <mxCell id="RwjSKkJ2c-AfhbRD7why-177" value="" style="ellipse;whiteSpace=wrap;html=1;aspect=fixed;fillColor=#dae8fc;strokeColor=#6c8ebf;" vertex="1" parent="1">
          <mxGeometry x="275" y="-618.63" width="8" height="8" as="geometry" />
        </mxCell>
        <mxCell id="RwjSKkJ2c-AfhbRD7why-178" value="" style="ellipse;whiteSpace=wrap;html=1;aspect=fixed;fillColor=#dae8fc;strokeColor=#6c8ebf;" vertex="1" parent="1">
          <mxGeometry x="300" y="-618.63" width="8" height="8" as="geometry" />
        </mxCell>
        <mxCell id="RwjSKkJ2c-AfhbRD7why-179" value="$$g$$" style="text;html=1;strokeColor=none;fillColor=none;align=center;verticalAlign=middle;whiteSpace=wrap;rounded=0;fontSize=12;" vertex="1" parent="1">
          <mxGeometry x="473" y="-437.63" width="23" height="30" as="geometry" />
        </mxCell>
        <mxCell id="RwjSKkJ2c-AfhbRD7why-180" value="&lt;font style=&quot;font-size: 12px;&quot;&gt;is a function that maps&amp;nbsp;&amp;nbsp;&lt;/font&gt;" style="text;html=1;strokeColor=none;fillColor=none;align=left;verticalAlign=middle;whiteSpace=wrap;rounded=0;fontSize=16;" vertex="1" parent="1">
          <mxGeometry x="495" y="-439.76" width="130" height="30" as="geometry" />
        </mxCell>
        <mxCell id="RwjSKkJ2c-AfhbRD7why-181" value="$$\mathbb{S} \times \mathbb{S}&lt;br&gt;$$" style="text;html=1;strokeColor=none;fillColor=none;align=center;verticalAlign=middle;whiteSpace=wrap;rounded=0;fontSize=12;" vertex="1" parent="1">
          <mxGeometry x="626" y="-437.63" width="23" height="30" as="geometry" />
        </mxCell>
        <mxCell id="RwjSKkJ2c-AfhbRD7why-182" value="&lt;font style=&quot;font-size: 12px;&quot;&gt;into&lt;/font&gt;" style="text;html=1;strokeColor=none;fillColor=none;align=left;verticalAlign=middle;whiteSpace=wrap;rounded=0;fontSize=16;" vertex="1" parent="1">
          <mxGeometry x="659" y="-439.88" width="26" height="30" as="geometry" />
        </mxCell>
        <mxCell id="RwjSKkJ2c-AfhbRD7why-183" value="$$\mathbb{S}$$" style="text;html=1;strokeColor=none;fillColor=none;align=center;verticalAlign=middle;whiteSpace=wrap;rounded=0;fontSize=12;" vertex="1" parent="1">
          <mxGeometry x="681" y="-437.63" width="23" height="30" as="geometry" />
        </mxCell>
        <mxCell id="RwjSKkJ2c-AfhbRD7why-184" value="$$g: \mathbb{S} \times \mathbb{S} \rightarrow \mathbb{S}$$" style="rounded=1;whiteSpace=wrap;html=1;fontSize=16;fillColor=#ffe6cc;strokeColor=#d79b00;" vertex="1" parent="1">
          <mxGeometry x="473" y="-486.88" width="130" height="47" as="geometry" />
        </mxCell>
        <mxCell id="RwjSKkJ2c-AfhbRD7why-189" style="edgeStyle=orthogonalEdgeStyle;rounded=0;orthogonalLoop=1;jettySize=auto;html=1;exitX=0;exitY=0.5;exitDx=0;exitDy=0;entryX=0.5;entryY=0;entryDx=0;entryDy=0;curved=1;fillColor=#ffe6cc;strokeColor=#d79b00;" edge="1" parent="1" source="RwjSKkJ2c-AfhbRD7why-185" target="RwjSKkJ2c-AfhbRD7why-188">
          <mxGeometry relative="1" as="geometry" />
        </mxCell>
        <mxCell id="RwjSKkJ2c-AfhbRD7why-185" value="" style="ellipse;whiteSpace=wrap;html=1;aspect=fixed;fillColor=#ffe6cc;strokeColor=#d79b00;" vertex="1" parent="1">
          <mxGeometry x="131" y="-711" width="8" height="8" as="geometry" />
        </mxCell>
        <mxCell id="RwjSKkJ2c-AfhbRD7why-190" style="edgeStyle=orthogonalEdgeStyle;rounded=0;orthogonalLoop=1;jettySize=auto;html=1;exitX=0;exitY=0.5;exitDx=0;exitDy=0;entryX=0.5;entryY=0;entryDx=0;entryDy=0;curved=1;fillColor=#ffe6cc;strokeColor=#d79b00;" edge="1" parent="1" source="RwjSKkJ2c-AfhbRD7why-186" target="RwjSKkJ2c-AfhbRD7why-188">
          <mxGeometry relative="1" as="geometry">
            <mxPoint x="25.758620689655118" y="-728.9310344827586" as="targetPoint" />
          </mxGeometry>
        </mxCell>
        <mxCell id="RwjSKkJ2c-AfhbRD7why-186" value="" style="ellipse;whiteSpace=wrap;html=1;aspect=fixed;fillColor=#ffe6cc;strokeColor=#d79b00;" vertex="1" parent="1">
          <mxGeometry x="180" y="-744" width="8" height="8" as="geometry" />
        </mxCell>
        <mxCell id="RwjSKkJ2c-AfhbRD7why-187" value="" style="ellipse;whiteSpace=wrap;html=1;aspect=fixed;fillColor=#ffe6cc;strokeColor=#d79b00;" vertex="1" parent="1">
          <mxGeometry x="131" y="-609.88" width="8" height="8" as="geometry" />
        </mxCell>
        <mxCell id="RwjSKkJ2c-AfhbRD7why-188" value="$$g$$" style="ellipse;whiteSpace=wrap;html=1;aspect=fixed;fontSize=17;fillColor=#ffe6cc;strokeColor=#d79b00;" vertex="1" parent="1">
          <mxGeometry x="-15.5" y="-684" width="48" height="48" as="geometry" />
        </mxCell>
        <mxCell id="RwjSKkJ2c-AfhbRD7why-195" style="edgeStyle=orthogonalEdgeStyle;rounded=0;orthogonalLoop=1;jettySize=auto;html=1;exitX=0.5;exitY=1;exitDx=0;exitDy=0;entryX=0;entryY=0.5;entryDx=0;entryDy=0;curved=1;fillColor=#ffe6cc;strokeColor=#d79b00;" edge="1" parent="1" source="RwjSKkJ2c-AfhbRD7why-188" target="RwjSKkJ2c-AfhbRD7why-187">
          <mxGeometry relative="1" as="geometry">
            <mxPoint x="141" y="-697" as="sourcePoint" />
            <mxPoint x="19" y="-657" as="targetPoint" />
            <Array as="points">
              <mxPoint x="9" y="-606" />
            </Array>
          </mxGeometry>
        </mxCell>
        <mxCell id="RwjSKkJ2c-AfhbRD7why-197" value="$$\Pi$$" style="ellipse;shape=cloud;whiteSpace=wrap;html=1;fontSize=18;fillColor=none;strokeColor=#9673a6;" vertex="1" parent="1">
          <mxGeometry x="291" y="-933" width="296" height="182" as="geometry" />
        </mxCell>
        <mxCell id="RwjSKkJ2c-AfhbRD7why-198" value="Set of all functions:&amp;nbsp;" style="text;html=1;strokeColor=none;fillColor=none;align=center;verticalAlign=middle;whiteSpace=wrap;rounded=0;fontSize=16;" vertex="1" parent="1">
          <mxGeometry x="338.53000000000003" y="-947" width="147" height="30" as="geometry" />
        </mxCell>
        <mxCell id="RwjSKkJ2c-AfhbRD7why-199" value="$$\mathbb{S} \rightarrow \mathbb{S}$$" style="text;html=1;strokeColor=none;fillColor=none;align=center;verticalAlign=middle;whiteSpace=wrap;rounded=0;fontSize=16;" vertex="1" parent="1">
          <mxGeometry x="479.48" y="-947" width="60" height="30" as="geometry" />
        </mxCell>
        <mxCell id="RwjSKkJ2c-AfhbRD7why-201" value="&lt;font style=&quot;font-size: 12px;&quot;&gt;$$\mu \in \Pi$$&lt;/font&gt;" style="ellipse;whiteSpace=wrap;html=1;aspect=fixed;fontSize=17;fillColor=#e1d5e7;strokeColor=#9673a6;" vertex="1" parent="1">
          <mxGeometry x="424" y="-822" width="48" height="48" as="geometry" />
        </mxCell>
        <mxCell id="RwjSKkJ2c-AfhbRD7why-202" value="" style="ellipse;whiteSpace=wrap;html=1;aspect=fixed;fillColor=#e1d5e7;strokeColor=#9673a6;" vertex="1" parent="1">
          <mxGeometry x="347" y="-695" width="8" height="8" as="geometry" />
        </mxCell>
        <mxCell id="RwjSKkJ2c-AfhbRD7why-203" style="edgeStyle=orthogonalEdgeStyle;rounded=0;orthogonalLoop=1;jettySize=auto;html=1;exitX=0.5;exitY=0;exitDx=0;exitDy=0;curved=1;fillColor=#e1d5e7;strokeColor=#9673a6;" edge="1" parent="1" source="RwjSKkJ2c-AfhbRD7why-202" target="RwjSKkJ2c-AfhbRD7why-201">
          <mxGeometry relative="1" as="geometry">
            <mxPoint x="19" y="-674" as="targetPoint" />
            <mxPoint x="190" y="-730" as="sourcePoint" />
          </mxGeometry>
        </mxCell>
        <mxCell id="RwjSKkJ2c-AfhbRD7why-204" value="" style="ellipse;whiteSpace=wrap;html=1;aspect=fixed;fillColor=#e1d5e7;strokeColor=#9673a6;" vertex="1" parent="1">
          <mxGeometry x="326" y="-711" width="8" height="8" as="geometry" />
        </mxCell>
        <mxCell id="RwjSKkJ2c-AfhbRD7why-205" style="edgeStyle=orthogonalEdgeStyle;rounded=0;orthogonalLoop=1;jettySize=auto;html=1;exitX=0;exitY=1;exitDx=0;exitDy=0;curved=1;fillColor=#e1d5e7;strokeColor=#9673a6;entryX=1;entryY=0;entryDx=0;entryDy=0;" edge="1" parent="1" source="RwjSKkJ2c-AfhbRD7why-201" target="RwjSKkJ2c-AfhbRD7why-204">
          <mxGeometry relative="1" as="geometry">
            <mxPoint x="458" y="-764" as="targetPoint" />
            <mxPoint x="361" y="-685" as="sourcePoint" />
            <Array as="points">
              <mxPoint x="431" y="-757" />
              <mxPoint x="333" y="-757" />
            </Array>
          </mxGeometry>
        </mxCell>
        <mxCell id="RwjSKkJ2c-AfhbRD7why-206" value="&lt;font style=&quot;font-size: 12px;&quot;&gt;$$\mu \in \Pi$$&lt;/font&gt;" style="ellipse;whiteSpace=wrap;html=1;aspect=fixed;fontSize=17;fillColor=#e1d5e7;strokeColor=#9673a6;" vertex="1" parent="1">
          <mxGeometry x="344" y="-846" width="48" height="48" as="geometry" />
        </mxCell>
        <mxCell id="RwjSKkJ2c-AfhbRD7why-207" value="" style="ellipse;whiteSpace=wrap;html=1;aspect=fixed;fillColor=#e1d5e7;strokeColor=#9673a6;" vertex="1" parent="1">
          <mxGeometry x="267" y="-719" width="8" height="8" as="geometry" />
        </mxCell>
        <mxCell id="RwjSKkJ2c-AfhbRD7why-208" style="edgeStyle=orthogonalEdgeStyle;rounded=0;orthogonalLoop=1;jettySize=auto;html=1;exitX=0.5;exitY=0;exitDx=0;exitDy=0;curved=1;fillColor=#e1d5e7;strokeColor=#9673a6;" edge="1" parent="1" source="RwjSKkJ2c-AfhbRD7why-207" target="RwjSKkJ2c-AfhbRD7why-206">
          <mxGeometry relative="1" as="geometry">
            <mxPoint x="-61" y="-698" as="targetPoint" />
            <mxPoint x="110" y="-754" as="sourcePoint" />
          </mxGeometry>
        </mxCell>
        <mxCell id="RwjSKkJ2c-AfhbRD7why-209" value="" style="ellipse;whiteSpace=wrap;html=1;aspect=fixed;fillColor=#e1d5e7;strokeColor=#9673a6;" vertex="1" parent="1">
          <mxGeometry x="246" y="-735" width="8" height="8" as="geometry" />
        </mxCell>
        <mxCell id="RwjSKkJ2c-AfhbRD7why-210" style="edgeStyle=orthogonalEdgeStyle;rounded=0;orthogonalLoop=1;jettySize=auto;html=1;exitX=0;exitY=1;exitDx=0;exitDy=0;curved=1;fillColor=#e1d5e7;strokeColor=#9673a6;entryX=1;entryY=0;entryDx=0;entryDy=0;" edge="1" parent="1" source="RwjSKkJ2c-AfhbRD7why-206" target="RwjSKkJ2c-AfhbRD7why-209">
          <mxGeometry relative="1" as="geometry">
            <mxPoint x="378" y="-788" as="targetPoint" />
            <mxPoint x="281" y="-709" as="sourcePoint" />
            <Array as="points">
              <mxPoint x="351" y="-781" />
              <mxPoint x="253" y="-781" />
            </Array>
          </mxGeometry>
        </mxCell>
        <mxCell id="RwjSKkJ2c-AfhbRD7why-211" value="$$\Pi =&amp;nbsp; \mathbb{S}^{&amp;nbsp;\mathbb{S}&lt;br&gt;}$$" style="rounded=1;whiteSpace=wrap;html=1;fontSize=16;fillColor=#e1d5e7;strokeColor=#9673a6;" vertex="1" parent="1">
          <mxGeometry x="469" y="-719" width="87" height="47" as="geometry" />
        </mxCell>
        <mxCell id="RwjSKkJ2c-AfhbRD7why-212" value="$$\Pi$$" style="text;html=1;strokeColor=none;fillColor=none;align=center;verticalAlign=middle;whiteSpace=wrap;rounded=0;fontSize=12;" vertex="1" parent="1">
          <mxGeometry x="469" y="-668.38" width="23" height="30" as="geometry" />
        </mxCell>
        <mxCell id="RwjSKkJ2c-AfhbRD7why-213" value="&lt;font style=&quot;font-size: 12px;&quot;&gt;is the set of all functions that maps&amp;nbsp;&amp;nbsp;&lt;/font&gt;" style="text;html=1;strokeColor=none;fillColor=none;align=left;verticalAlign=middle;whiteSpace=wrap;rounded=0;fontSize=16;" vertex="1" parent="1">
          <mxGeometry x="491" y="-670.51" width="193" height="30" as="geometry" />
        </mxCell>
        <mxCell id="RwjSKkJ2c-AfhbRD7why-214" value="$$\mathbb{S}$$" style="text;html=1;strokeColor=none;fillColor=none;align=center;verticalAlign=middle;whiteSpace=wrap;rounded=0;fontSize=12;" vertex="1" parent="1">
          <mxGeometry x="676" y="-668.38" width="23" height="30" as="geometry" />
        </mxCell>
        <mxCell id="RwjSKkJ2c-AfhbRD7why-215" value="&lt;font style=&quot;font-size: 12px;&quot;&gt;Here we use the notation&lt;/font&gt;" style="text;html=1;strokeColor=none;fillColor=none;align=left;verticalAlign=middle;whiteSpace=wrap;rounded=0;fontSize=16;" vertex="1" parent="1">
          <mxGeometry x="473" y="-648.63" width="284" height="30" as="geometry" />
        </mxCell>
        <mxCell id="RwjSKkJ2c-AfhbRD7why-216" value="$$A^B$$" style="text;html=1;strokeColor=none;fillColor=none;align=center;verticalAlign=middle;whiteSpace=wrap;rounded=0;fontSize=12;" vertex="1" parent="1">
          <mxGeometry x="609" y="-648.63" width="23" height="30" as="geometry" />
        </mxCell>
        <mxCell id="RwjSKkJ2c-AfhbRD7why-217" value="&lt;font style=&quot;font-size: 12px;&quot;&gt;to&lt;/font&gt;" style="text;html=1;strokeColor=none;fillColor=none;align=left;verticalAlign=middle;whiteSpace=wrap;rounded=0;fontSize=16;" vertex="1" parent="1">
          <mxGeometry x="696" y="-670.51" width="16" height="30" as="geometry" />
        </mxCell>
        <mxCell id="RwjSKkJ2c-AfhbRD7why-218" value="$$\mathbb{S}$$" style="text;html=1;strokeColor=none;fillColor=none;align=center;verticalAlign=middle;whiteSpace=wrap;rounded=0;fontSize=12;" vertex="1" parent="1">
          <mxGeometry x="708" y="-668.38" width="23" height="30" as="geometry" />
        </mxCell>
        <mxCell id="RwjSKkJ2c-AfhbRD7why-220" value="&lt;font style=&quot;font-size: 12px;&quot;&gt;to denote the set of all functions that map&amp;nbsp;&lt;/font&gt;" style="text;html=1;strokeColor=none;fillColor=none;align=left;verticalAlign=middle;whiteSpace=wrap;rounded=0;fontSize=16;" vertex="1" parent="1">
          <mxGeometry x="634" y="-648.63" width="230" height="30" as="geometry" />
        </mxCell>
        <mxCell id="RwjSKkJ2c-AfhbRD7why-221" value="$$B$$" style="text;html=1;strokeColor=none;fillColor=none;align=center;verticalAlign=middle;whiteSpace=wrap;rounded=0;fontSize=12;" vertex="1" parent="1">
          <mxGeometry x="855" y="-648.63" width="23" height="30" as="geometry" />
        </mxCell>
        <mxCell id="RwjSKkJ2c-AfhbRD7why-222" value="&lt;font style=&quot;font-size: 12px;&quot;&gt;to&lt;/font&gt;" style="text;html=1;strokeColor=none;fillColor=none;align=left;verticalAlign=middle;whiteSpace=wrap;rounded=0;fontSize=16;" vertex="1" parent="1">
          <mxGeometry x="878" y="-648.63" width="17" height="30" as="geometry" />
        </mxCell>
        <mxCell id="RwjSKkJ2c-AfhbRD7why-223" value="$$A$$" style="text;html=1;strokeColor=none;fillColor=none;align=center;verticalAlign=middle;whiteSpace=wrap;rounded=0;fontSize=12;" vertex="1" parent="1">
          <mxGeometry x="890" y="-648.63" width="23" height="30" as="geometry" />
        </mxCell>
        <mxCell id="RwjSKkJ2c-AfhbRD7why-225" value="$$\underset{a\in \mathbb{S}}{\text{min}} \: \mathbb{E} [g(W, a)] = \mathbb{E} [\underset{a\in \mathbb{S}}{\text{min}} \: g(W, a)]$$" style="text;html=1;strokeColor=none;fillColor=none;align=center;verticalAlign=middle;whiteSpace=wrap;rounded=0;fontSize=16;" vertex="1" parent="1">
          <mxGeometry x="1416" y="-924" width="365" height="135" as="geometry" />
        </mxCell>
        <mxCell id="RwjSKkJ2c-AfhbRD7why-250" value="$$g(W, \mu(W))$$" style="rounded=1;whiteSpace=wrap;html=1;fillColor=#dae8fc;strokeColor=#6c8ebf;" vertex="1" parent="1">
          <mxGeometry x="1693" y="-788.99" width="97" height="34" as="geometry" />
        </mxCell>
        <mxCell id="RwjSKkJ2c-AfhbRD7why-251" value="$$\underset{\mu \in \Pi}{\text{min}} \: \mathbb{E} \big[g(W, \mu(W))\big] = \mathbb{E} \big[\underset{\mu \in \Pi}{\text{min}} \: g(W, \mu(W))\big]$$" style="text;html=1;strokeColor=none;fillColor=none;align=center;verticalAlign=middle;whiteSpace=wrap;rounded=0;fontSize=16;" vertex="1" parent="1">
          <mxGeometry x="1295" y="-791.31" width="331.5" height="78.63" as="geometry" />
        </mxCell>
        <mxCell id="RwjSKkJ2c-AfhbRD7why-252" value="$$\underset{\mu \in \Pi}{\text{min}} \: g(W, \mu(W))$$" style="rounded=1;whiteSpace=wrap;html=1;fillColor=#dae8fc;strokeColor=#6c8ebf;" vertex="1" parent="1">
          <mxGeometry x="1656" y="-719" width="137" height="41" as="geometry" />
        </mxCell>
        <mxCell id="RwjSKkJ2c-AfhbRD7why-253" value="$$\mathbb{E} \big[\underset{\mu \in \Pi}{\text{min}} \: g(W, \mu(W))\big]&lt;br&gt;$$" style="rounded=1;whiteSpace=wrap;html=1;fillColor=#dae8fc;strokeColor=#6c8ebf;" vertex="1" parent="1">
          <mxGeometry x="1653" y="-631.63" width="155" height="42.63" as="geometry" />
        </mxCell>
        <mxCell id="RwjSKkJ2c-AfhbRD7why-254" value="$$\sum_{i=t+1}^{T-1} g_i (s_i, \pi_i(s_i))$$" style="rounded=1;whiteSpace=wrap;html=1;fillColor=#dae8fc;strokeColor=#6c8ebf;" vertex="1" parent="1">
          <mxGeometry x="1871" y="-800.48" width="144" height="56.99" as="geometry" />
        </mxCell>
        <mxCell id="RwjSKkJ2c-AfhbRD7why-255" value="cost for all states in the rollout (from t+1 onward)" style="rounded=1;whiteSpace=wrap;html=1;fillColor=#ffe6cc;strokeColor=#d79b00;" vertex="1" parent="1">
          <mxGeometry x="2096" y="-800.49" width="144" height="56.99" as="geometry" />
        </mxCell>
        <mxCell id="RwjSKkJ2c-AfhbRD7why-256" value="cost given the policy that minimizes the cost over all states in the rollout" style="rounded=1;whiteSpace=wrap;html=1;fillColor=#ffe6cc;strokeColor=#d79b00;" vertex="1" parent="1">
          <mxGeometry x="2096" y="-727" width="233" height="56.99" as="geometry" />
        </mxCell>
        <mxCell id="RwjSKkJ2c-AfhbRD7why-257" value="expected value of the cost for one state given the policy that minimizes the cost over all states in the rollout&amp;nbsp;" style="rounded=1;whiteSpace=wrap;html=1;fillColor=#ffe6cc;strokeColor=#d79b00;" vertex="1" parent="1">
          <mxGeometry x="2096" y="-642.13" width="268" height="56.99" as="geometry" />
        </mxCell>
        <mxCell id="RwjSKkJ2c-AfhbRD7why-258" value="PROBLEM 4" style="text;html=1;strokeColor=none;fillColor=none;align=center;verticalAlign=middle;whiteSpace=wrap;rounded=0;fontSize=32;" vertex="1" parent="1">
          <mxGeometry x="3452" y="-1073" width="233" height="30" as="geometry" />
        </mxCell>
        <mxCell id="RwjSKkJ2c-AfhbRD7why-265" style="edgeStyle=orthogonalEdgeStyle;rounded=0;orthogonalLoop=1;jettySize=auto;html=1;exitX=0.5;exitY=0;exitDx=0;exitDy=0;entryX=0;entryY=0.5;entryDx=0;entryDy=0;strokeWidth=3;startArrow=classic;startFill=1;" edge="1" parent="1" source="RwjSKkJ2c-AfhbRD7why-259" target="RwjSKkJ2c-AfhbRD7why-260">
          <mxGeometry relative="1" as="geometry" />
        </mxCell>
        <mxCell id="RwjSKkJ2c-AfhbRD7why-266" value="$$s_t$$" style="edgeLabel;html=1;align=center;verticalAlign=middle;resizable=0;points=[];fontSize=20;" vertex="1" connectable="0" parent="RwjSKkJ2c-AfhbRD7why-265">
          <mxGeometry x="0.1501" y="1" relative="1" as="geometry">
            <mxPoint x="-1" as="offset" />
          </mxGeometry>
        </mxCell>
        <mxCell id="RwjSKkJ2c-AfhbRD7why-259" value="" style="rounded=0;whiteSpace=wrap;html=1;fontSize=16;fillColor=#ffe6cc;strokeColor=#d79b00;fontStyle=1" vertex="1" parent="1">
          <mxGeometry x="3049" y="-679.89" width="354" height="99" as="geometry" />
        </mxCell>
        <mxCell id="RwjSKkJ2c-AfhbRD7why-261" style="edgeStyle=orthogonalEdgeStyle;rounded=0;orthogonalLoop=1;jettySize=auto;html=1;exitX=0.5;exitY=1;exitDx=0;exitDy=0;entryX=1;entryY=0.5;entryDx=0;entryDy=0;strokeWidth=3;startArrow=classic;startFill=1;" edge="1" parent="1" source="RwjSKkJ2c-AfhbRD7why-260" target="RwjSKkJ2c-AfhbRD7why-259">
          <mxGeometry relative="1" as="geometry" />
        </mxCell>
        <mxCell id="RwjSKkJ2c-AfhbRD7why-262" value="$$a_t$$" style="edgeLabel;html=1;align=center;verticalAlign=middle;resizable=0;points=[];fontSize=20;" vertex="1" connectable="0" parent="RwjSKkJ2c-AfhbRD7why-261">
          <mxGeometry x="-0.1718" y="1" relative="1" as="geometry">
            <mxPoint x="-34" y="18" as="offset" />
          </mxGeometry>
        </mxCell>
        <mxCell id="RwjSKkJ2c-AfhbRD7why-281" style="edgeStyle=orthogonalEdgeStyle;rounded=0;orthogonalLoop=1;jettySize=auto;html=1;exitX=1;exitY=0.5;exitDx=0;exitDy=0;strokeWidth=3;" edge="1" parent="1" source="RwjSKkJ2c-AfhbRD7why-260">
          <mxGeometry relative="1" as="geometry">
            <mxPoint x="3802.7777777777774" y="-802.2222222222222" as="targetPoint" />
          </mxGeometry>
        </mxCell>
        <mxCell id="RwjSKkJ2c-AfhbRD7why-260" value="Inventory System" style="rounded=0;whiteSpace=wrap;html=1;fontSize=18;fillColor=#dae8fc;strokeColor=#6c8ebf;fontStyle=0" vertex="1" parent="1">
          <mxGeometry x="3427" y="-854" width="186" height="103" as="geometry" />
        </mxCell>
        <mxCell id="RwjSKkJ2c-AfhbRD7why-263" value="Stock ordered at period" style="text;html=1;strokeColor=none;fillColor=none;align=left;verticalAlign=middle;whiteSpace=wrap;rounded=0;fontSize=18;" vertex="1" parent="1">
          <mxGeometry x="3526" y="-721" width="93" height="66" as="geometry" />
        </mxCell>
        <mxCell id="RwjSKkJ2c-AfhbRD7why-264" value="$$t$$" style="text;html=1;strokeColor=none;fillColor=none;align=left;verticalAlign=middle;whiteSpace=wrap;rounded=0;fontSize=18;" vertex="1" parent="1">
          <mxGeometry x="3582" y="-699" width="93" height="66" as="geometry" />
        </mxCell>
        <mxCell id="RwjSKkJ2c-AfhbRD7why-267" value="Stock at period&amp;nbsp;&amp;nbsp;" style="text;html=1;strokeColor=none;fillColor=none;align=right;verticalAlign=middle;whiteSpace=wrap;rounded=0;fontSize=18;" vertex="1" parent="1">
          <mxGeometry x="3122" y="-803" width="93" height="66" as="geometry" />
        </mxCell>
        <mxCell id="RwjSKkJ2c-AfhbRD7why-269" value="Cost at period&amp;nbsp;" style="text;html=1;strokeColor=none;fillColor=none;align=left;verticalAlign=middle;whiteSpace=wrap;rounded=0;fontSize=18;" vertex="1" parent="1">
          <mxGeometry x="3150.5" y="-668" width="181" height="35" as="geometry" />
        </mxCell>
        <mxCell id="RwjSKkJ2c-AfhbRD7why-270" value="$$t$$" style="text;html=1;strokeColor=none;fillColor=none;align=left;verticalAlign=middle;whiteSpace=wrap;rounded=0;fontSize=18;" vertex="1" parent="1">
          <mxGeometry x="3269.5" y="-661.88" width="30" height="26" as="geometry" />
        </mxCell>
        <mxCell id="RwjSKkJ2c-AfhbRD7why-271" value="$$h_t(s_t + a_t - D_t)^+ + b_t(D_t - s_t - a_t)^+$$" style="text;html=1;strokeColor=none;fillColor=none;align=center;verticalAlign=middle;whiteSpace=wrap;rounded=0;fontSize=17;" vertex="1" parent="1">
          <mxGeometry x="3059" y="-627.01" width="341" height="35.24" as="geometry" />
        </mxCell>
        <mxCell id="RwjSKkJ2c-AfhbRD7why-273" value="$$t$$" style="text;html=1;strokeColor=none;fillColor=none;align=left;verticalAlign=middle;whiteSpace=wrap;rounded=0;fontSize=18;" vertex="1" parent="1">
          <mxGeometry x="3208" y="-780" width="21" height="43" as="geometry" />
        </mxCell>
        <mxCell id="RwjSKkJ2c-AfhbRD7why-274" value="Demand at period&amp;nbsp;" style="text;html=1;strokeColor=none;fillColor=none;align=center;verticalAlign=middle;whiteSpace=wrap;rounded=0;fontSize=18;" vertex="1" parent="1">
          <mxGeometry x="3462.5" y="-1008" width="115" height="66" as="geometry" />
        </mxCell>
        <mxCell id="RwjSKkJ2c-AfhbRD7why-276" value="$$t$$" style="text;html=1;strokeColor=none;fillColor=none;align=left;verticalAlign=middle;whiteSpace=wrap;rounded=0;fontSize=18;" vertex="1" parent="1">
          <mxGeometry x="3548" y="-996" width="93" height="66" as="geometry" />
        </mxCell>
        <mxCell id="RwjSKkJ2c-AfhbRD7why-279" value="$$D_t$$" style="text;html=1;align=center;verticalAlign=middle;resizable=0;points=[];autosize=1;strokeColor=none;fillColor=none;fontSize=17;" vertex="1" parent="1">
          <mxGeometry x="3479" y="-922" width="82" height="32" as="geometry" />
        </mxCell>
        <mxCell id="RwjSKkJ2c-AfhbRD7why-282" value="Stock at period" style="text;html=1;strokeColor=none;fillColor=none;align=left;verticalAlign=middle;whiteSpace=wrap;rounded=0;fontSize=18;" vertex="1" parent="1">
          <mxGeometry x="3635" y="-862" width="108" height="56" as="geometry" />
        </mxCell>
        <mxCell id="RwjSKkJ2c-AfhbRD7why-283" value="$$t+1$$" style="text;html=1;strokeColor=none;fillColor=none;align=left;verticalAlign=middle;whiteSpace=wrap;rounded=0;fontSize=18;" vertex="1" parent="1">
          <mxGeometry x="3692" y="-838" width="59" height="32" as="geometry" />
        </mxCell>
        <mxCell id="RwjSKkJ2c-AfhbRD7why-285" value="$$s_{t+1} = s_t + a_t - D_t$$" style="text;html=1;strokeColor=none;fillColor=none;align=left;verticalAlign=middle;whiteSpace=wrap;rounded=0;fontSize=18;" vertex="1" parent="1">
          <mxGeometry x="3625" y="-818.89" width="216" height="74.89" as="geometry" />
        </mxCell>
        <mxCell id="RwjSKkJ2c-AfhbRD7why-287" value="$$\underset{\mu \in \Pi}{\text{min}}&amp;nbsp;&lt;br&gt;\sum_{i=t+1}^{T-1} g_i (s_i, \pi_i(s_i))$$" style="rounded=1;whiteSpace=wrap;html=1;fillColor=#dae8fc;strokeColor=#6c8ebf;" vertex="1" parent="1">
          <mxGeometry x="1859.5" y="-723.99" width="167" height="56.99" as="geometry" />
        </mxCell>
        <mxCell id="RwjSKkJ2c-AfhbRD7why-288" value="$$\mathbb{E} \Bigg[\underset{\mu \in \Pi}{\text{min}}&amp;nbsp;&lt;br&gt;\sum_{i=t+1}^{T-1} g_i (s_i, \pi_i(s_i))\Bigg]&lt;br&gt;$$" style="rounded=1;whiteSpace=wrap;html=1;fillColor=#dae8fc;strokeColor=#6c8ebf;" vertex="1" parent="1">
          <mxGeometry x="1859.5" y="-634.37" width="167" height="56.99" as="geometry" />
        </mxCell>
        <mxCell id="RwjSKkJ2c-AfhbRD7why-289" value="$$ \mathbb{E} \big[\underset{\mu \in \Pi}{\text{min}} \: g(W, \mu(W))\big]$$" style="text;html=1;strokeColor=none;fillColor=none;align=center;verticalAlign=middle;whiteSpace=wrap;rounded=0;fontSize=16;" vertex="1" parent="1">
          <mxGeometry x="1777.25" y="-881.6299999999999" width="331.5" height="78.63" as="geometry" />
        </mxCell>
        <mxCell id="RwjSKkJ2c-AfhbRD7why-290" value="$$\underset{\mu \in \Pi}{\text{min}} \: \mathbb{E} \big[g(W, \mu(W))\big]$$" style="text;html=1;strokeColor=none;fillColor=none;align=center;verticalAlign=middle;whiteSpace=wrap;rounded=0;fontSize=16;" vertex="1" parent="1">
          <mxGeometry x="1777.25" y="-530" width="331.5" height="78.63" as="geometry" />
        </mxCell>
        <mxCell id="RwjSKkJ2c-AfhbRD7why-291" value="$$g(W, \mu(W))$$" style="rounded=1;whiteSpace=wrap;html=1;fillColor=#dae8fc;strokeColor=#6c8ebf;" vertex="1" parent="1">
          <mxGeometry x="1693" y="-428.38" width="97" height="34" as="geometry" />
        </mxCell>
        <mxCell id="RwjSKkJ2c-AfhbRD7why-292" value="$$\sum_{i=t+1}^{T-1} g_i (s_i, \pi_i(s_i))$$" style="rounded=1;whiteSpace=wrap;html=1;fillColor=#dae8fc;strokeColor=#6c8ebf;" vertex="1" parent="1">
          <mxGeometry x="1871" y="-439.87" width="144" height="56.99" as="geometry" />
        </mxCell>
        <mxCell id="RwjSKkJ2c-AfhbRD7why-293" value="cost for all states in the rollout (from t+1 onward)" style="rounded=1;whiteSpace=wrap;html=1;fillColor=#ffe6cc;strokeColor=#d79b00;" vertex="1" parent="1">
          <mxGeometry x="2096" y="-439.88" width="144" height="56.99" as="geometry" />
        </mxCell>
        <mxCell id="RwjSKkJ2c-AfhbRD7why-294" value="$$\mathbb{E}[g(W, \mu(W))]$$" style="rounded=1;whiteSpace=wrap;html=1;fillColor=#dae8fc;strokeColor=#6c8ebf;" vertex="1" parent="1">
          <mxGeometry x="1667" y="-335.5" width="123" height="34" as="geometry" />
        </mxCell>
        <mxCell id="RwjSKkJ2c-AfhbRD7why-295" value="$$\mathbb{E}\Bigg[\sum_{i=t+1}^{T-1} g_i (s_i, \pi_i(s_i))\Bigg]$$" style="rounded=1;whiteSpace=wrap;html=1;fillColor=#dae8fc;strokeColor=#6c8ebf;" vertex="1" parent="1">
          <mxGeometry x="1871" y="-346.99" width="144" height="56.99" as="geometry" />
        </mxCell>
        <mxCell id="RwjSKkJ2c-AfhbRD7why-296" value="cost for a single state - the expected value of s_i" style="rounded=1;whiteSpace=wrap;html=1;fillColor=#ffe6cc;strokeColor=#d79b00;" vertex="1" parent="1">
          <mxGeometry x="2096" y="-347" width="215" height="56.99" as="geometry" />
        </mxCell>
        <mxCell id="RwjSKkJ2c-AfhbRD7why-297" value="$$\underset{\pi \in \Pi}{\text{max}} \: \mathbb{E}_X \big[g(X, \pi(X))\big]&lt;br style=&quot;font-size: 15px;&quot;&gt;$$" style="rounded=1;whiteSpace=wrap;html=1;fillColor=#dae8fc;strokeColor=#6c8ebf;fontSize=15;" vertex="1" parent="1">
          <mxGeometry x="1857" y="-209" width="172" height="60" as="geometry" />
        </mxCell>
        <mxCell id="RwjSKkJ2c-AfhbRD7why-298" value="Choosing a policy such that we&#39;re going to be maximizing a reward over the states" style="rounded=1;whiteSpace=wrap;html=1;fillColor=#ffe6cc;strokeColor=#d79b00;" vertex="1" parent="1">
          <mxGeometry x="2078" y="-207.49" width="215" height="56.99" as="geometry" />
        </mxCell>
        <mxCell id="RwjSKkJ2c-AfhbRD7why-300" value="" style="rounded=0;whiteSpace=wrap;html=1;" vertex="1" parent="1">
          <mxGeometry x="2999" y="-431" width="1046" height="1083" as="geometry" />
        </mxCell>
        <mxCell id="RwjSKkJ2c-AfhbRD7why-301" value="Problem 4 pseudocode" style="text;html=1;strokeColor=none;fillColor=none;align=left;verticalAlign=middle;whiteSpace=wrap;rounded=0;fontSize=20;" vertex="1" parent="1">
          <mxGeometry x="2999" y="-465.12" width="221" height="30" as="geometry" />
        </mxCell>
        <mxCell id="RwjSKkJ2c-AfhbRD7why-303" value="" style="rounded=0;whiteSpace=wrap;html=1;fillColor=#f5f5f5;fontColor=#333333;strokeColor=#666666;" vertex="1" parent="1">
          <mxGeometry x="3071" y="-359" width="819" height="978" as="geometry" />
        </mxCell>
        <mxCell id="RwjSKkJ2c-AfhbRD7why-299" value="if t == T:&amp;nbsp;&lt;br&gt;&lt;span style=&quot;white-space: pre;&quot;&gt;&#x9;&lt;/span&gt;return MAX(h_T(s), -b_T(s))&amp;nbsp;" style="rounded=1;whiteSpace=wrap;html=1;align=left;fontSize=18;" vertex="1" parent="1">
          <mxGeometry x="3101.5" y="-64.62" width="279.5" height="51.12" as="geometry" />
        </mxCell>
        <mxCell id="RwjSKkJ2c-AfhbRD7why-302" value="&lt;b&gt;Base case&amp;nbsp;&lt;/b&gt;" style="text;html=1;strokeColor=none;fillColor=none;align=left;verticalAlign=middle;whiteSpace=wrap;rounded=0;fontSize=18;" vertex="1" parent="1">
          <mxGeometry x="3101.5" y="-99" width="200" height="30" as="geometry" />
        </mxCell>
        <mxCell id="RwjSKkJ2c-AfhbRD7why-304" value="Bellman Backward Recursion (t, s_t)&amp;nbsp;" style="text;html=1;strokeColor=none;fillColor=none;align=left;verticalAlign=middle;whiteSpace=wrap;rounded=0;fontSize=20;" vertex="1" parent="1">
          <mxGeometry x="3068.5" y="-395.88" width="451.5" height="30" as="geometry" />
        </mxCell>
        <mxCell id="RwjSKkJ2c-AfhbRD7why-306" value="&lt;b&gt;Recursive case&lt;/b&gt;" style="text;html=1;strokeColor=none;fillColor=none;align=left;verticalAlign=middle;whiteSpace=wrap;rounded=0;fontSize=18;" vertex="1" parent="1">
          <mxGeometry x="3101.5" y="17" width="253.5" height="30" as="geometry" />
        </mxCell>
        <mxCell id="RwjSKkJ2c-AfhbRD7why-307" value="&lt;b&gt;Initialize Q, v, pi&lt;/b&gt;" style="text;html=1;strokeColor=none;fillColor=none;align=left;verticalAlign=middle;whiteSpace=wrap;rounded=0;fontSize=18;" vertex="1" parent="1">
          <mxGeometry x="3101.5" y="-324" width="253.5" height="30" as="geometry" />
        </mxCell>
        <mxCell id="RwjSKkJ2c-AfhbRD7why-309" value="&lt;span style=&quot;font-size: 17px;&quot;&gt;# optimal value functions&lt;/span&gt;&lt;br style=&quot;border-color: var(--border-color); font-size: 17px;&quot;&gt;&lt;span style=&quot;font-size: 17px;&quot;&gt;v = np.zeros((|S|, T))&lt;/span&gt;&lt;br style=&quot;border-color: var(--border-color); font-size: 17px;&quot;&gt;&lt;br style=&quot;border-color: var(--border-color); font-size: 17px;&quot;&gt;&lt;span style=&quot;font-size: 17px;&quot;&gt;# store optimal policy&lt;/span&gt;&lt;br style=&quot;border-color: var(--border-color); font-size: 17px;&quot;&gt;&lt;span style=&quot;font-size: 17px;&quot;&gt;pi = np.zeros((|S|, T))&lt;/span&gt;" style="rounded=0;whiteSpace=wrap;html=1;align=left;fontSize=17;" vertex="1" parent="1">
          <mxGeometry x="3105" y="-290.01" width="302" height="123.01" as="geometry" />
        </mxCell>
        <mxCell id="RwjSKkJ2c-AfhbRD7why-310" value="&lt;font style=&quot;font-size: 18px;&quot;&gt;# step backwards through time starting from T-1&lt;br style=&quot;border-color: var(--border-color);&quot;&gt;for t = T-1 to 0: do&lt;br style=&quot;border-color: var(--border-color);&quot;&gt;&lt;span style=&quot;border-color: var(--border-color);&quot;&gt;&lt;span style=&quot;&quot;&gt;&amp;nbsp;&amp;nbsp;&amp;nbsp;&amp;nbsp;&lt;/span&gt;&lt;/span&gt;# iterate over all states (this is where I&#39;m a little lost)&lt;br style=&quot;border-color: var(--border-color);&quot;&gt;&lt;span style=&quot;border-color: var(--border-color);&quot;&gt;&lt;span style=&quot;&quot;&gt;&amp;nbsp;&amp;nbsp;&amp;nbsp;&amp;nbsp;&lt;/span&gt;&lt;/span&gt;for s in St:&lt;br style=&quot;border-color: var(--border-color);&quot;&gt;&lt;span style=&quot;border-color: var(--border-color);&quot;&gt;&lt;span style=&quot;&quot;&gt;&amp;nbsp;&amp;nbsp;&amp;nbsp;&amp;nbsp;&lt;/span&gt;&lt;/span&gt;&lt;span style=&quot;border-color: var(--border-color);&quot;&gt;&lt;span style=&quot;&quot;&gt;&amp;nbsp;&amp;nbsp;&amp;nbsp;&amp;nbsp;&lt;/span&gt;&lt;/span&gt;# iterate over all the actions in the action space&lt;br&gt;&lt;span style=&quot;border-color: var(--border-color);&quot;&gt;&lt;span style=&quot;&quot;&gt;&lt;span style=&quot;&quot;&gt;&lt;span style=&quot;&quot;&gt;&amp;nbsp;&amp;nbsp;&amp;nbsp;&amp;nbsp;    &lt;br&gt;&lt;span style=&quot;&quot;&gt;&lt;span style=&quot;white-space: pre;&quot;&gt;&amp;nbsp;&amp;nbsp;&amp;nbsp;&amp;nbsp;&lt;/span&gt;&lt;/span&gt;single_action_vec = []&lt;/span&gt;&lt;/span&gt;&lt;br&gt;&lt;/span&gt;&lt;/span&gt;&lt;span style=&quot;&quot;&gt;&lt;span style=&quot;&quot;&gt;&amp;nbsp;&amp;nbsp;&amp;nbsp;&amp;nbsp;&lt;span style=&quot;&quot;&gt;&lt;span style=&quot;white-space: pre;&quot;&gt;&amp;nbsp;&amp;nbsp;&amp;nbsp;&amp;nbsp;&lt;/span&gt;&lt;/span&gt;&lt;/span&gt;&lt;/span&gt;for a in A:&amp;nbsp;&lt;br&gt;&lt;span style=&quot;&quot;&gt;&lt;span style=&quot;&quot;&gt;&amp;nbsp;&amp;nbsp;&amp;nbsp;&amp;nbsp;&lt;/span&gt;&lt;/span&gt;&lt;span style=&quot;&quot;&gt;&lt;span style=&quot;&quot;&gt;&amp;nbsp;&amp;nbsp;&amp;nbsp;&amp;nbsp;&lt;span style=&quot;&quot;&gt;&lt;span style=&quot;white-space: pre;&quot;&gt;&amp;nbsp;&amp;nbsp;&amp;nbsp;&amp;nbsp;&lt;/span&gt;&lt;/span&gt;cost_&lt;/span&gt;&lt;/span&gt;vec = []&lt;br&gt;&lt;span style=&quot;&quot;&gt;&lt;span style=&quot;&quot;&gt;&amp;nbsp;&amp;nbsp;&amp;nbsp;&amp;nbsp;&lt;/span&gt;&lt;/span&gt;&lt;span style=&quot;&quot;&gt;&lt;span style=&quot;&quot;&gt;&amp;nbsp;&amp;nbsp;&amp;nbsp;&amp;nbsp;&lt;span style=&quot;&quot;&gt;&lt;span style=&quot;white-space: pre;&quot;&gt;&amp;nbsp;&amp;nbsp;&amp;nbsp;&amp;nbsp;&lt;/span&gt;&lt;/span&gt;&lt;/span&gt;&lt;/span&gt;for i in D_t:&lt;br&gt;&lt;br style=&quot;border-color: var(--border-color);&quot;&gt;&lt;/font&gt;&lt;blockquote style=&quot;margin: 0 0 0 40px; border: none; padding: 0px;&quot;&gt;&lt;font style=&quot;font-size: 18px;&quot;&gt;&lt;span style=&quot;border-color: var(--border-color);&quot;&gt;&lt;span style=&quot;&quot;&gt;&amp;nbsp;&amp;nbsp;&amp;nbsp;&amp;nbsp;&lt;/span&gt;&lt;/span&gt;&lt;span style=&quot;border-color: var(--border-color);&quot;&gt;&lt;span style=&quot;&quot;&gt;&amp;nbsp;&amp;nbsp;&amp;nbsp;&amp;nbsp;&lt;/span&gt;&lt;span style=&quot;border-color: var(--border-color);&quot;&gt;&lt;span style=&quot;&quot;&gt;&amp;nbsp;&amp;nbsp;&amp;nbsp;&amp;nbsp;&lt;span style=&quot;&quot;&gt;&lt;span style=&quot;white-space: pre;&quot;&gt;&amp;nbsp;&amp;nbsp;&amp;nbsp;&amp;nbsp;&lt;/span&gt;&lt;/span&gt;&lt;/span&gt;&lt;/span&gt;&lt;/span&gt;r_t = o_t(a_t) + MAX(ht(st + at - Dt), -bt(st + at - Dt))&lt;/font&gt;&lt;/blockquote&gt;&lt;font style=&quot;font-size: 18px;&quot;&gt;&lt;br style=&quot;border-color: var(--border-color);&quot;&gt;&lt;span style=&quot;border-color: var(--border-color);&quot;&gt;&lt;span style=&quot;&quot;&gt;&amp;nbsp;&amp;nbsp;&amp;nbsp;&amp;nbsp;&lt;/span&gt;&lt;/span&gt;&lt;span style=&quot;border-color: var(--border-color);&quot;&gt;&lt;span style=&quot;&quot;&gt;&amp;nbsp;&amp;nbsp;&amp;nbsp;&amp;nbsp;&lt;/span&gt;&lt;span style=&quot;border-color: var(--border-color);&quot;&gt;&lt;span style=&quot;&quot;&gt;&amp;nbsp;&amp;nbsp;&amp;nbsp;&amp;nbsp;&lt;span style=&quot;&quot;&gt;&lt;span style=&quot;&quot;&gt;&amp;nbsp;&amp;nbsp;&amp;nbsp;&amp;nbsp;&lt;/span&gt;&lt;/span&gt;&amp;nbsp;&lt;span style=&quot;&quot;&gt;&lt;span style=&quot;white-space: pre;&quot;&gt;&amp;nbsp;&amp;nbsp;&amp;nbsp;&amp;nbsp;&lt;/span&gt;&lt;/span&gt;cost_vec.append (&lt;/span&gt;&lt;/span&gt;&lt;/span&gt;r_t + Bellman_backward_recursion(t=t))&lt;br&gt;&lt;span style=&quot;&quot;&gt;&lt;span style=&quot;&quot;&gt;&amp;nbsp;&amp;nbsp;&amp;nbsp;&amp;nbsp;&lt;/span&gt;&lt;/span&gt;&lt;span style=&quot;&quot;&gt;&lt;span style=&quot;&quot;&gt;&amp;nbsp;&amp;nbsp;&amp;nbsp;&amp;nbsp;&lt;span style=&quot;&quot;&gt;&lt;span style=&quot;white-space: pre;&quot;&gt;&amp;nbsp;&amp;nbsp;&amp;nbsp;&amp;nbsp;&lt;/span&gt;&lt;/span&gt;cost_&lt;/span&gt;&lt;/span&gt;vec_a = mean(vec)&lt;br style=&quot;border-color: var(--border-color);&quot;&gt;&lt;span style=&quot;border-color: var(--border-color);&quot;&gt;&lt;span style=&quot;&quot;&gt;&amp;nbsp;&amp;nbsp;&amp;nbsp;&amp;nbsp;&lt;/span&gt;&lt;/span&gt;&lt;span style=&quot;border-color: var(--border-color);&quot;&gt;&lt;span style=&quot;&quot;&gt;&amp;nbsp;&amp;nbsp;&amp;nbsp;&amp;nbsp;&lt;/span&gt;&lt;/span&gt;&lt;br style=&quot;border-color: var(--border-color);&quot;&gt;&lt;span style=&quot;border-color: var(--border-color);&quot;&gt;&lt;span style=&quot;&quot;&gt;&amp;nbsp;&amp;nbsp;&amp;nbsp;&amp;nbsp;&lt;/span&gt;&lt;/span&gt;&lt;span style=&quot;border-color: var(--border-color);&quot;&gt;&lt;span style=&quot;&quot;&gt;&amp;nbsp;&amp;nbsp;&amp;nbsp;&amp;nbsp;&lt;/span&gt;&lt;/span&gt;pi[s, t] = ARGMIN(Q[s, t, :]) # optimal policy for this state and period&amp;nbsp;&lt;br&gt;&lt;span style=&quot;white-space: pre;&quot;&gt;&#x9;&lt;/span&gt;v[s, t] = MAX(Q[s, t, :]) # optimal value function for state s and period t&lt;br style=&quot;border-color: var(--border-color);&quot;&gt;&lt;br style=&quot;border-color: var(--border-color);&quot;&gt;return [Q, v, pi]&lt;br&gt;&lt;/font&gt;" style="rounded=0;whiteSpace=wrap;html=1;align=left;" vertex="1" parent="1">
          <mxGeometry x="3101.5" y="51" width="766.5" height="541" as="geometry" />
        </mxCell>
      </root>
    </mxGraphModel>
  </diagram>
</mxfile>
